<svg width="28" height="28" viewBox="0 0 28 28" fill="none" xmlns="http://www.w3.org/2000/svg">
<path d="M14.0002 19.8333C14.3307 19.8333 14.608 19.7213 14.832 19.4973C15.056 19.2733 15.1676 18.9965 15.1668 18.6667V15.1667H18.696C19.0266 15.1667 19.2988 15.0547 19.5127 14.8307C19.7266 14.6067 19.8335 14.3298 19.8335 14C19.8335 13.6695 19.7215 13.3922 19.4975 13.1682C19.2735 12.9442 18.9966 12.8326 18.6668 12.8333H15.1668V9.30418C15.1668 8.97362 15.0548 8.7014 14.8308 8.48751C14.6068 8.27362 14.3299 8.16668 14.0002 8.16668C13.6696 8.16668 13.3923 8.27868 13.1683 8.50268C12.9443 8.72668 12.8327 9.00357 12.8335 9.33334V12.8333H9.30433C8.97377 12.8333 8.70155 12.9453 8.48766 13.1693C8.27377 13.3933 8.16683 13.6702 8.16683 14C8.16683 14.3306 8.27883 14.6078 8.50283 14.8318C8.72683 15.0558 9.00372 15.1675 9.3335 15.1667H12.8335V18.6958C12.8335 19.0264 12.9455 19.2986 13.1695 19.5125C13.3935 19.7264 13.6704 19.8333 14.0002 19.8333ZM14.0002 25.6667C12.3863 25.6667 10.8696 25.3602 9.45016 24.7473C8.03072 24.1345 6.796 23.3034 5.746 22.2542C4.696 21.2042 3.86494 19.9695 3.25283 18.55C2.64072 17.1306 2.33427 15.6139 2.3335 14C2.3335 12.3861 2.63994 10.8695 3.25283 9.45001C3.86572 8.03057 4.69677 6.79584 5.746 5.74584C6.796 4.69584 8.03072 3.86479 9.45016 3.25268C10.8696 2.64057 12.3863 2.33412 14.0002 2.33334C15.6141 2.33334 17.1307 2.63979 18.5502 3.25268C19.9696 3.86557 21.2043 4.69662 22.2543 5.74584C23.3043 6.79584 24.1358 8.03057 24.7487 9.45001C25.3615 10.8695 25.6676 12.3861 25.6668 14C25.6668 15.6139 25.3604 17.1306 24.7475 18.55C24.1346 19.9695 23.3036 21.2042 22.2543 22.2542C21.2043 23.3042 19.9696 24.1356 18.5502 24.7485C17.1307 25.3614 15.6141 25.6675 14.0002 25.6667ZM14.0002 23.3333C16.5863 23.3333 18.7886 22.4245 20.607 20.6068C22.4254 18.7892 23.3343 16.5869 23.3335 14C23.3335 11.4139 22.4247 9.21162 20.607 7.39318C18.7893 5.57473 16.5871 4.6659 14.0002 4.66668C11.4141 4.66668 9.21177 5.57551 7.39333 7.39318C5.57488 9.21084 4.66605 11.4131 4.66683 14C4.66683 16.5861 5.57566 18.7884 7.39333 20.6068C9.211 22.4253 11.4133 23.3341 14.0002 23.3333Z" fill="#34607B"/>
</svg>
