<svg width="16" height="20" viewBox="0 0 16 20" fill="none" xmlns="http://www.w3.org/2000/svg">
<path fill-rule="evenodd" clip-rule="evenodd" d="M13.7769 16H2.22288C0.393885 16 -0.649115 14.161 0.447885 12.872C0.924976 12.3206 1.22622 11.639 1.31288 10.915L1.75988 6.975C1.91813 5.91103 2.37526 4.91385 3.07807 4.09951C3.78088 3.28517 4.70048 2.68714 5.72988 2.37501V2.27501C5.72988 1.9769 5.7886 1.68172 5.90268 1.40631C6.01676 1.1309 6.18396 0.880661 6.39475 0.669873C6.60554 0.459084 6.85578 0.291877 7.13119 0.177798C7.4066 0.0637202 7.70178 0.00500488 7.99988 0.00500488C8.29799 0.00500488 8.59317 0.0637202 8.86858 0.177798C9.14398 0.291877 9.39423 0.459084 9.60502 0.669873C9.81581 0.880661 9.98301 1.1309 10.0971 1.40631C10.2112 1.68172 10.2699 1.9769 10.2699 2.27501V2.37501C11.2993 2.68714 12.2189 3.28517 12.9217 4.09951C13.6245 4.91385 14.0816 5.91103 14.2399 6.975L14.6869 10.915C14.7739 11.6391 15.0755 12.3207 15.5529 12.872C16.6489 14.161 15.6059 16 13.7769 16ZM10.9719 18.072C10.7234 18.6518 10.3082 19.1446 9.779 19.4878C9.24983 19.8311 8.63058 20.0094 7.99988 20C7.36919 20.0094 6.74994 19.8311 6.22077 19.4878C5.6916 19.1446 5.27639 18.6518 5.02788 18.072C5.00899 18.0246 4.99948 17.974 4.99988 17.923C4.99988 17.8108 5.04445 17.7032 5.12378 17.6239C5.20311 17.5446 5.3107 17.5 5.42288 17.5H10.5759C10.6881 17.5 10.7957 17.5446 10.875 17.6239C10.9543 17.7032 10.9989 17.8108 10.9989 17.923C10.9996 17.974 10.9905 18.0246 10.9719 18.072Z" fill="#28303F"/>
</svg>
