<svg width="23" height="24" viewBox="0 0 23 24" fill="none" xmlns="http://www.w3.org/2000/svg">
<path d="M20.5 16.875H22.75V19.125H0.25V16.875H2.5V9C2.5 6.61305 3.44821 4.32387 5.13604 2.63604C6.82387 0.948212 9.11305 0 11.5 0C13.8869 0 16.1761 0.948212 17.864 2.63604C19.5518 4.32387 20.5 6.61305 20.5 9V16.875ZM18.25 16.875V9C18.25 7.20979 17.5388 5.4929 16.273 4.22703C15.0071 2.96116 13.2902 2.25 11.5 2.25C9.70979 2.25 7.9929 2.96116 6.72703 4.22703C5.46116 5.4929 4.75 7.20979 4.75 9V16.875H18.25ZM8.125 21.375H14.875V23.625H8.125V21.375Z" fill="#333333"/>
</svg>
