<svg width="16" height="20" viewBox="0 0 16 20" fill="none" xmlns="http://www.w3.org/2000/svg">
<path fill-rule="evenodd" clip-rule="evenodd" d="M16 4V12C16 13.0553 15.583 14.0679 14.8398 14.8172C14.0965 15.5664 13.0873 15.9916 12.032 16C12.3718 15.3139 12.5309 14.5525 12.4944 13.7878C12.4578 13.023 12.2267 12.2803 11.823 11.6297C11.4192 10.9792 10.8562 10.4425 10.1871 10.0703C9.51807 9.6981 8.76511 9.50277 7.9995 9.50277C7.23389 9.50277 6.48093 9.6981 5.81187 10.0703C5.14282 10.4425 4.57979 10.9792 4.17605 11.6297C3.77231 12.2803 3.54122 13.023 3.50464 13.7878C3.46806 14.5525 3.6272 15.3139 3.967 16C2.91186 15.9913 1.9029 15.566 1.15988 14.8168C0.416858 14.0676 -3.59071e-05 13.0552 2.31962e-09 12L2.31962e-09 4C2.31962e-09 2.93913 0.421427 1.92172 1.17157 1.17157C1.92172 0.421427 2.93913 0 4 0L12 0C13.0609 0 14.0783 0.421427 14.8284 1.17157C15.5786 1.92172 16 2.93913 16 4ZM3.25 4C3.25 3.80109 3.32902 3.61032 3.46967 3.46967C3.61032 3.32902 3.80109 3.25 4 3.25H12C12.1989 3.25 12.3897 3.32902 12.5303 3.46967C12.671 3.61032 12.75 3.80109 12.75 4C12.75 4.19891 12.671 4.38968 12.5303 4.53033C12.3897 4.67098 12.1989 4.75 12 4.75H4C3.80109 4.75 3.61032 4.67098 3.46967 4.53033C3.32902 4.38968 3.25 4.19891 3.25 4ZM4 6.25C3.80109 6.25 3.61032 6.32902 3.46967 6.46967C3.32902 6.61032 3.25 6.80109 3.25 7C3.25 7.19891 3.32902 7.38968 3.46967 7.53033C3.61032 7.67098 3.80109 7.75 4 7.75H8C8.19891 7.75 8.38968 7.67098 8.53033 7.53033C8.67098 7.38968 8.75 7.19891 8.75 7C8.75 6.80109 8.67098 6.61032 8.53033 6.46967C8.38968 6.32902 8.19891 6.25 8 6.25H4ZM10 16.236C10.4529 15.8309 10.7721 15.2979 10.9154 14.7075C11.0587 14.1171 11.0193 13.497 10.8025 12.9295C10.5857 12.3619 10.2017 11.8735 9.70126 11.529C9.20083 11.1844 8.60758 10.9999 8 10.9999C7.39242 10.9999 6.79917 11.1844 6.29874 11.529C5.7983 11.8735 5.41428 12.3619 5.19748 12.9295C4.98069 13.497 4.94134 14.1171 5.08464 14.7075C5.22794 15.2979 5.54714 15.8309 6 16.236V20L8 19L10 20V16.236Z" fill="#28303F"/>
</svg>
