<svg width="24" height="25" viewBox="0 0 24 25" fill="none" xmlns="http://www.w3.org/2000/svg">
<path fill-rule="evenodd" clip-rule="evenodd" d="M13.5862 2.33521C14.1166 2.33532 14.6252 2.54611 15.0002 2.92121L19.4142 7.33521C19.7893 7.71019 20.0001 8.21881 20.0002 8.7492V20.3352C20.0002 20.8656 19.7895 21.3743 19.4144 21.7494C19.0394 22.1245 18.5307 22.3352 18.0002 22.3352H13.0002C12.735 22.3352 12.4807 22.2298 12.2931 22.0423C12.1056 21.8548 12.0002 21.6004 12.0002 21.3352C12.0002 21.07 12.1056 20.8156 12.2931 20.6281C12.4807 20.4406 12.735 20.3352 13.0002 20.3352H18.0002V10.3352H13.5002C13.1024 10.3352 12.7209 10.1772 12.4396 9.89587C12.1583 9.61456 12.0002 9.23303 12.0002 8.83521V4.33521H6.00022V8.33521C6.00022 8.60042 5.89486 8.85478 5.70733 9.04231C5.51979 9.22985 5.26544 9.33521 5.00022 9.33521C4.73501 9.33521 4.48065 9.22985 4.29312 9.04231C4.10558 8.85478 4.00022 8.60042 4.00022 8.33521V4.33521C4.00022 3.80477 4.21094 3.29606 4.58601 2.92099C4.96108 2.54592 5.46979 2.33521 6.00022 2.33521H13.5862ZM7.00022 10.3352C7.77006 10.3352 8.52355 10.5573 9.17028 10.9749C9.81701 11.3925 10.3295 11.9878 10.6462 12.6895C10.9629 13.3912 11.0705 14.1693 10.9559 14.9306C10.8413 15.6918 10.5095 16.4039 10.0002 16.9812V21.1732C10.0002 21.3607 9.95234 21.5451 9.86104 21.7089C9.76973 21.8727 9.63808 22.0105 9.47856 22.1091C9.31905 22.2077 9.13698 22.2638 8.94965 22.2723C8.76232 22.2807 8.57594 22.2411 8.40822 22.1572L7.00022 21.4532L5.59222 22.1572C5.4245 22.2411 5.23813 22.2807 5.05079 22.2723C4.86346 22.2638 4.68139 22.2077 4.52188 22.1091C4.36237 22.0105 4.23071 21.8727 4.13941 21.7089C4.04811 21.5451 4.00019 21.3607 4.00022 21.1732V16.9812C3.49097 16.4039 3.15915 15.6918 3.04456 14.9306C2.92997 14.1693 3.0375 13.3912 3.35423 12.6895C3.67096 11.9878 4.18344 11.3925 4.83016 10.9749C5.47689 10.5573 6.23038 10.3352 7.00022 10.3352ZM8.00022 18.2092C7.34426 18.3781 6.65619 18.3781 6.00022 18.2092V19.7172L6.55322 19.4412C6.69202 19.3718 6.84506 19.3357 7.00022 19.3357C7.15539 19.3357 7.30842 19.3718 7.44722 19.4412L8.00022 19.7172V18.2092ZM7.00022 12.3352C6.46979 12.3352 5.96108 12.5459 5.58601 12.921C5.21094 13.2961 5.00022 13.8048 5.00022 14.3352C5.00022 14.8656 5.21094 15.3743 5.58601 15.7494C5.96108 16.1245 6.46979 16.3352 7.00022 16.3352C7.53065 16.3352 8.03936 16.1245 8.41443 15.7494C8.78951 15.3743 9.00022 14.8656 9.00022 14.3352C9.00022 13.8048 8.78951 13.2961 8.41443 12.921C8.03936 12.5459 7.53065 12.3352 7.00022 12.3352ZM14.0002 4.74921V8.33521H17.5862L14.0002 4.74921Z" fill="#34607B"/>
</svg>
