<?xml version="1.0" encoding="iso-8859-1"?>
<!-- Uploaded to: SVG Repo, www.svgrepo.com, Generator: SVG Repo Mixer Tools -->
<svg fill="#000000" height="800px" width="800px" version="1.1" id="Layer_1" xmlns="http://www.w3.org/2000/svg" xmlns:xlink="http://www.w3.org/1999/xlink" 
	 viewBox="0 0 512 512" xml:space="preserve">
<g>
	<g>
		<path d="M268.191,0C133.754,0,24.381,109.373,24.381,243.81c0,34.645,7.07,67.974,21.041,99.206L1.17,480.134
			c-2.999,9.338-0.122,19.578,7.339,25.99c4.51,3.852,10.167,5.876,15.872,5.876c3.706,0,7.461-0.853,10.898-2.56l98.865-49.445
			c0.414,0.244,0.853,0.463,1.292,0.707c33.451,16.628,94.964,26.917,132.754,26.917c134.437,0,243.81-109.373,243.81-243.81
			S402.627,0,268.191,0z M170.667,268.191c-13.458,0-24.381-10.923-24.381-24.381c0-13.458,10.923-24.381,24.381-24.381
			c13.458,0,24.381,10.923,24.381,24.381C195.048,257.268,184.125,268.191,170.667,268.191z M268.191,268.191
			c-13.458,0-24.381-10.923-24.381-24.381c0-13.458,10.923-24.381,24.381-24.381c13.458,0,24.381,10.923,24.381,24.381
			C292.571,257.268,281.649,268.191,268.191,268.191z M365.714,268.191c-13.458,0-24.381-10.923-24.381-24.381
			c0-13.458,10.923-24.381,24.381-24.381s24.381,10.923,24.381,24.381C390.095,257.268,379.173,268.191,365.714,268.191z"/>
	</g>
</g>
</svg>