<svg width="10" height="10" viewBox="0 0 10 10" fill="none" xmlns="http://www.w3.org/2000/svg">
<path d="M9.77303 1.28703C9.84263 1.21703 9.89776 1.13402 9.93528 1.04271C9.9728 0.951413 9.99196 0.853616 9.99168 0.754907C9.9914 0.656199 9.97169 0.558511 9.93365 0.467423C9.89562 0.376335 9.84002 0.293629 9.77003 0.224029C9.70003 0.154428 9.61702 0.0992954 9.52571 0.0617786C9.43441 0.0242618 9.33662 0.00509551 9.23791 0.00537409C9.1392 0.00565266 9.04151 0.0253706 8.95042 0.0634022C8.85933 0.101434 8.77663 0.157034 8.70703 0.227029L9.77303 1.28703ZM0.227029 8.70703C0.0856682 8.84759 0.0059367 9.03856 0.00537409 9.23791C0.00481148 9.43726 0.0834638 9.62867 0.224029 9.77003C0.364593 9.91139 0.555556 9.99112 0.754907 9.99168C0.954258 9.99225 1.14567 9.91359 1.28703 9.77303L0.227029 8.70703ZM8.70703 9.77303C8.84839 9.91439 9.04011 9.9938 9.24003 9.9938C9.43994 9.9938 9.63167 9.91439 9.77303 9.77303C9.91439 9.63167 9.9938 9.43994 9.9938 9.24003C9.9938 9.04011 9.91439 8.84839 9.77303 8.70703L8.70703 9.77303ZM1.28703 0.227029C1.14485 0.0945486 0.956807 0.0224254 0.762506 0.0258536C0.568205 0.0292818 0.38282 0.107994 0.245407 0.245407C0.107994 0.38282 0.0292818 0.568205 0.0258536 0.762506C0.0224254 0.956807 0.0945486 1.14485 0.227029 1.28703L1.28703 0.227029ZM8.70703 0.227029L0.227029 8.70703L1.28703 9.77303L9.77303 1.28703L8.70703 0.227029ZM9.77303 8.70703L1.28703 0.227029L0.227029 1.28703L8.70703 9.77303L9.77303 8.70703Z" fill="#28303F"/>
</svg>
