<svg width="20" height="22" viewBox="0 0 20 22" fill="none" xmlns="http://www.w3.org/2000/svg">
<path d="M6 9.25C5.80109 9.25 5.61032 9.32902 5.46967 9.46967C5.32902 9.61032 5.25 9.80109 5.25 10C5.25 10.1989 5.32902 10.3897 5.46967 10.5303C5.61032 10.671 5.80109 10.75 6 10.75V9.25ZM10 10.75C10.1989 10.75 10.3897 10.671 10.5303 10.5303C10.671 10.3897 10.75 10.1989 10.75 10C10.75 9.80109 10.671 9.61032 10.5303 9.46967C10.3897 9.32902 10.1989 9.25 10 9.25V10.75ZM6 10.75H10V9.25H6V10.75Z" fill="#28303F"/>
<path d="M6 14.25C5.80109 14.25 5.61032 14.329 5.46967 14.4697C5.32902 14.6103 5.25 14.8011 5.25 15C5.25 15.1989 5.32902 15.3897 5.46967 15.5303C5.61032 15.671 5.80109 15.75 6 15.75V14.25ZM14 15.75C14.1989 15.75 14.3897 15.671 14.5303 15.5303C14.671 15.3897 14.75 15.1989 14.75 15C14.75 14.8011 14.671 14.6103 14.5303 14.4697C14.3897 14.329 14.1989 14.25 14 14.25V15.75ZM6 15.75H14V14.25H6V15.75Z" fill="#28303F"/>
<path d="M19 8H19.75C19.7498 7.80115 19.6707 7.61052 19.53 7.47L19 8ZM12 1L12.53 0.47C12.3895 0.329308 12.1988 0.250175 12 0.25V1ZM18.25 8V17H19.75V8H18.25ZM15 20.25H5V21.75H15V20.25ZM1.75 17V5H0.25V17H1.75ZM5 1.75H12V0.25H5V1.75ZM11.47 1.53L18.47 8.53L19.53 7.47L12.53 0.47L11.47 1.53ZM11.25 1V4H12.75V1H11.25ZM16 8.75H19V7.25H16V8.75ZM5 20.25C4.13805 20.25 3.3114 19.9076 2.7019 19.2981C2.09241 18.6886 1.75 17.862 1.75 17H0.25C0.25 18.2598 0.750445 19.468 1.64124 20.3588C2.53204 21.2496 3.74022 21.75 5 21.75V20.25ZM18.25 17C18.25 17.862 17.9076 18.6886 17.2981 19.2981C16.6886 19.9076 15.862 20.25 15 20.25V21.75C16.2598 21.75 17.468 21.2496 18.3588 20.3588C19.2496 19.468 19.75 18.2598 19.75 17H18.25ZM11.25 4C11.25 5.25978 11.7504 6.46796 12.6412 7.35876C13.532 8.24955 14.7402 8.75 16 8.75V7.25C15.138 7.25 14.3114 6.90759 13.7019 6.2981C13.0924 5.6886 12.75 4.86195 12.75 4H11.25ZM1.75 5C1.75 4.13805 2.09241 3.3114 2.7019 2.7019C3.3114 2.09241 4.13805 1.75 5 1.75V0.25C3.74022 0.25 2.53204 0.750445 1.64124 1.64124C0.750445 2.53204 0.25 3.74022 0.25 5H1.75Z" fill="#28303F"/>
</svg>
