<svg width="39" height="39" viewBox="0 0 39 39" fill="none" xmlns="http://www.w3.org/2000/svg">
<path d="M26.8125 12.1836V21.3125C26.8125 21.9092 26.5814 22.4815 26.17 22.9035C25.7586 23.3254 25.2006 23.5625 24.6187 23.5625H14.3812C13.7994 23.5625 13.2414 23.3254 12.83 22.9035C12.4186 22.4815 12.1875 21.9092 12.1875 21.3125V6.3125C12.1875 5.71576 12.4186 5.14347 12.83 4.72151C13.2414 4.29955 13.7994 4.0625 14.3812 4.0625H18.8944C19.2822 4.06256 19.654 4.22054 19.9282 4.50172L26.3843 11.1233C26.6584 11.4045 26.8124 11.7859 26.8125 12.1836Z" stroke="#34607B" stroke-width="2" stroke-linejoin="round"/>
<path d="M19.3599 4.0625V9.6875C19.3599 10.0853 19.5252 10.4669 19.8195 10.7482C20.1137 11.0295 20.5128 11.1875 20.9289 11.1875H26.8125M15.4375 14.9375H23.2823M15.4375 18.6875H23.2823" stroke="#34607B" stroke-width="2" stroke-linecap="round" stroke-linejoin="round"/>
</svg>
