<svg width="20" height="20" viewBox="0 0 20 20" fill="none" xmlns="http://www.w3.org/2000/svg">
<path fill-rule="evenodd" clip-rule="evenodd" d="M7.84 3.063C7.44163 4.1084 7.15698 5.19365 6.991 6.3C7.947 6.217 8.957 6.17 10 6.17C11.043 6.17 12.053 6.217 13.009 6.304C12.8431 5.19591 12.5581 4.10896 12.159 3.062C11.902 2.34946 11.5174 1.6897 11.024 1.115C10.9014 0.955661 10.7471 0.823458 10.5709 0.72673C10.3946 0.630002 10.2002 0.570848 10 0.553C9.7995 0.570836 9.60488 0.630081 9.42845 0.726989C9.25202 0.823897 9.09761 0.956359 8.975 1.116C8.48156 1.69068 8.09695 2.35045 7.84 3.063ZM6.429 2.494C5.9401 3.78355 5.60446 5.12609 5.429 6.494C4.47863 6.62802 3.53918 6.83055 2.618 7.1C1.76852 7.33206 0.961178 7.69725 0.226 8.182C0.149 8.237 0.074 8.3 0 8.356C0.324196 6.32548 1.25528 4.4406 2.67084 2.94919C4.0864 1.45778 5.92015 0.429654 7.931 0L7.871 0.063C7.24495 0.77778 6.75611 1.6019 6.429 2.494ZM12.069 0L12.129 0.063C12.7547 0.777847 13.2432 1.60196 13.57 2.494C14.0589 3.78355 14.3945 5.12609 14.57 6.494C15.5191 6.6292 16.4572 6.83273 17.377 7.103C18.2265 7.3354 19.0339 7.70093 19.769 8.186C19.846 8.241 19.921 8.299 19.995 8.36C19.6719 6.32942 18.7419 4.44415 17.3272 2.95203C15.9126 1.45992 14.0795 0.430808 12.069 0V0ZM20 11.643C19.926 11.704 19.851 11.762 19.774 11.817C19.0389 12.3021 18.2315 12.6676 17.382 12.9C16.4622 13.1702 15.5241 13.3738 14.575 13.509C14.3995 14.8769 14.0639 16.2195 13.575 17.509C13.2482 18.401 12.7597 19.2252 12.134 19.94L12.069 20C14.08 19.5703 15.9138 18.542 17.3294 17.0504C18.745 15.5588 19.676 13.6737 20 11.643ZM7.931 20L7.87 19.937C7.24431 19.2221 6.75581 18.398 6.429 17.506C5.94016 16.2164 5.60453 14.8739 5.429 13.506C4.47863 13.3719 3.53919 13.1694 2.618 12.9C1.76846 12.6676 0.961114 12.3021 0.226 11.817C0.149 11.762 0.074 11.7 0 11.643C0.324011 13.6737 1.25502 15.5588 2.67059 17.0504C4.08616 18.542 5.92001 19.5703 7.931 20ZM3.055 11.433C3.77694 11.6463 4.51177 11.8133 5.255 11.933C5.209 11.305 5.185 10.659 5.185 10.001C5.185 9.343 5.209 8.701 5.255 8.069C4.51177 8.18866 3.77694 8.35567 3.055 8.569C2.36404 8.75435 1.70615 9.04618 1.105 9.434C0.667 9.745 0.629 9.948 0.629 10C0.629 10.052 0.667 10.255 1.105 10.568C1.70615 10.9558 2.36404 11.2476 3.055 11.433ZM6.708 10C6.708 10.737 6.74 11.452 6.8 12.138C7.86324 12.2459 8.9313 12.2993 10 12.298C11.0687 12.2993 12.1368 12.2459 13.2 12.138C13.26 11.452 13.292 10.738 13.292 10C13.292 9.262 13.26 8.548 13.2 7.862C11.072 7.6488 8.92801 7.6488 6.8 7.862C6.739 8.548 6.708 9.263 6.708 10ZM7.84 16.937C7.44094 15.89 7.15596 14.8031 6.99 13.695C7.946 13.783 8.957 13.829 9.999 13.829C11.041 13.829 12.052 13.782 13.008 13.695C12.8421 14.8031 12.5571 15.89 12.158 16.937C11.9011 17.6495 11.5164 18.3093 11.023 18.884C10.9006 19.0434 10.7465 19.1757 10.5705 19.2726C10.3944 19.3695 10.2002 19.4289 10 19.447C9.7995 19.4292 9.60488 19.3699 9.42845 19.273C9.25202 19.1761 9.09761 19.0436 8.975 18.884C8.48154 18.3093 8.09693 17.6496 7.84 16.937ZM16.94 11.437C16.2181 11.6503 15.4832 11.8173 14.74 11.937C14.786 11.309 14.81 10.663 14.81 10.005C14.81 9.347 14.786 8.705 14.74 8.073C15.4832 8.19266 16.2181 8.35967 16.94 8.573C17.631 8.75835 18.2888 9.05018 18.89 9.438C19.328 9.751 19.366 9.954 19.366 10.006C19.366 10.058 19.328 10.261 18.89 10.574C18.29 10.9592 17.6339 11.249 16.945 11.433L16.94 11.437Z" fill="#28303F"/>
</svg>
