<svg width="14" height="14" viewBox="0 0 14 14" fill="none" xmlns="http://www.w3.org/2000/svg">
<path d="M1.33333 13.8125C0.966668 13.8125 0.652668 13.6902 0.391334 13.4456C0.130001 13.201 -0.000443313 12.9067 1.13186e-06 12.5625V3.8125C1.13186e-06 3.46875 0.130668 3.17438 0.392001 2.92938C0.653334 2.68438 0.967112 2.56208 1.33333 2.5625H7.28333L5.95 3.8125H1.33333V12.5625H10.6667V8.21875L12 6.96875V12.5625C12 12.9063 11.8693 13.2006 11.608 13.4456C11.3467 13.6906 11.0329 13.8129 10.6667 13.8125H1.33333ZM8.78333 2.92188L9.73334 3.79688L5.33333 7.92187V8.8125H6.26667L10.6833 4.67187L11.6333 5.54688L7.21667 9.6875C7.09445 9.80208 6.95267 9.89333 6.79134 9.96125C6.63 10.0292 6.46067 10.0629 6.28333 10.0625H4.66667C4.47778 10.0625 4.31933 10.0025 4.19133 9.8825C4.06333 9.7625 3.99956 9.61417 4 9.4375V7.92187C4 7.75521 4.03333 7.59625 4.1 7.445C4.16667 7.29375 4.26111 7.16104 4.38333 7.04688L8.78333 2.92188ZM11.6333 5.54688L8.78333 2.92188L10.45 1.35938C10.7167 1.10938 11.0362 0.984375 11.4087 0.984375C11.7811 0.984375 12.0949 1.10938 12.35 1.35938L13.2833 2.25C13.5389 2.48958 13.6667 2.78125 13.6667 3.125C13.6667 3.46875 13.5389 3.76042 13.2833 4L11.6333 5.54688Z" fill="#34607B"/>
</svg>
