<svg width="11" height="14" viewBox="0 0 11 14" fill="none" xmlns="http://www.w3.org/2000/svg">
<path d="M0.5 13.75C0.5 12.4239 1.02678 11.1521 1.96447 10.2145C2.90215 9.27678 4.17392 8.75 5.5 8.75C6.82608 8.75 8.09785 9.27678 9.03553 10.2145C9.97322 11.1521 10.5 12.4239 10.5 13.75H9.25C9.25 12.7554 8.85491 11.8016 8.15165 11.0983C7.44839 10.3951 6.49456 10 5.5 10C4.50544 10 3.55161 10.3951 2.84835 11.0983C2.14509 11.8016 1.75 12.7554 1.75 13.75H0.5ZM5.5 8.125C3.42812 8.125 1.75 6.44688 1.75 4.375C1.75 2.30312 3.42812 0.625 5.5 0.625C7.57188 0.625 9.25 2.30312 9.25 4.375C9.25 6.44688 7.57188 8.125 5.5 8.125ZM5.5 6.875C6.88125 6.875 8 5.75625 8 4.375C8 2.99375 6.88125 1.875 5.5 1.875C4.11875 1.875 3 2.99375 3 4.375C3 5.75625 4.11875 6.875 5.5 6.875Z" fill="#34607B"/>
</svg>
