<svg width="20" height="18" viewBox="0 0 20 18" fill="none" xmlns="http://www.w3.org/2000/svg">
<path fill-rule="evenodd" clip-rule="evenodd" d="M0.029 3.512L8.235 9.48C8.74776 9.85291 9.36548 10.0538 9.9995 10.0538C10.6335 10.0538 11.2512 9.85291 11.764 9.48L19.97 3.512C19.8509 2.54296 19.3815 1.65094 18.6502 1.00404C17.9189 0.357142 16.9763 2.94848e-05 16 9.68108e-08H4C3.02349 -0.000214634 2.08064 0.356788 1.34917 1.00371C0.617694 1.65063 0.148134 2.54279 0.029 3.512ZM20 5.964L12.941 11.1C12.0864 11.7216 11.0568 12.0564 10 12.0564C8.94323 12.0564 7.91363 11.7216 7.059 11.1L0 5.964V14C0 15.0609 0.421427 16.0783 1.17157 16.8284C1.92172 17.5786 2.93913 18 4 18H16C17.0609 18 18.0783 17.5786 18.8284 16.8284C19.5786 16.0783 20 15.0609 20 14V5.964Z" fill="#28303F"/>
</svg>
