<svg width="23" height="18" viewBox="0 0 23 18" fill="none" xmlns="http://www.w3.org/2000/svg">
<path d="M22.75 17.1273C22.7495 18.6658 22.2236 20.158 21.2594 21.3568C20.2952 22.5557 18.9505 23.3893 17.4479 23.7197L16.7301 21.5665C17.3874 21.4582 18.0125 21.2055 18.5603 20.8266C19.1081 20.4476 19.565 19.9518 19.8981 19.375H17.125C16.5283 19.375 15.956 19.1379 15.534 18.716C15.1121 18.294 14.875 17.7217 14.875 17.125V12.625C14.875 12.0283 15.1121 11.456 15.534 11.034C15.956 10.6121 16.5283 10.375 17.125 10.375H20.4303C20.1557 8.20026 19.097 6.20043 17.4529 4.75076C15.8087 3.30109 13.692 2.50121 11.5 2.50121C9.308 2.50121 7.19133 3.30109 5.54714 4.75076C3.90296 6.20043 2.84428 8.20026 2.56975 10.375H5.875C6.47174 10.375 7.04403 10.6121 7.46599 11.034C7.88795 11.456 8.125 12.0283 8.125 12.625V17.125C8.125 17.7217 7.88795 18.294 7.46599 18.716C7.04403 19.1379 6.47174 19.375 5.875 19.375H2.5C1.90326 19.375 1.33097 19.1379 0.90901 18.716C0.487053 18.294 0.25 17.7217 0.25 17.125V11.5C0.25 5.28663 5.28663 0.25 11.5 0.25C17.7134 0.25 22.75 5.28663 22.75 11.5V17.1273ZM20.5 17.125V12.625H17.125V17.125H20.5ZM2.5 12.625V17.125H5.875V12.625H2.5Z" fill="white"/>
</svg>
