<svg width="20" height="20" viewBox="0 0 20 20" fill="none" xmlns="http://www.w3.org/2000/svg">
<path d="M10.9754 19.95V17.95C11.6754 17.85 12.3544 17.6583 13.0124 17.375C13.6711 17.0917 14.2921 16.7333 14.8754 16.3L16.3254 17.75C15.5421 18.3667 14.7004 18.8627 13.8004 19.238C12.9004 19.6127 11.9587 19.85 10.9754 19.95ZM17.7254 16.3L16.3254 14.9C16.7587 14.35 17.1087 13.7457 17.3754 13.087C17.6421 12.429 17.8254 11.7333 17.9254 11H19.9754C19.8421 12.0333 19.5881 12.9957 19.2134 13.887C18.8381 14.779 18.3421 15.5833 17.7254 16.3ZM17.9254 9C17.8254 8.25 17.6421 7.54567 17.3754 6.887C17.1087 6.229 16.7587 5.63334 16.3254 5.1L17.7254 3.7C18.3587 4.43334 18.8714 5.25 19.2634 6.15C19.6547 7.05 19.8921 8 19.9754 9H17.9254ZM8.97539 19.95C6.42539 19.65 4.29639 18.5543 2.58839 16.663C0.879724 14.771 0.0253906 12.55 0.0253906 10C0.0253906 7.41667 0.879724 5.18334 2.58839 3.3C4.29639 1.41667 6.42539 0.333336 8.97539 0.0500031V2.05C6.97539 2.33334 5.31706 3.225 4.00039 4.725C2.68372 6.225 2.02539 7.98334 2.02539 10C2.02539 12 2.68372 13.75 4.00039 15.25C5.31706 16.75 6.97539 17.65 8.97539 17.95V19.95ZM14.9254 3.7C14.3254 3.25 13.6921 2.88334 13.0254 2.6C12.3587 2.31667 11.6754 2.13334 10.9754 2.05V0.0500031C11.9587 0.133336 12.9004 0.362336 13.8004 0.737003C14.7004 1.11234 15.5421 1.61667 16.3254 2.25L14.9254 3.7ZM10.0004 15C8.65039 13.85 7.64639 12.7873 6.98839 11.812C6.32972 10.8373 6.00039 9.93334 6.00039 9.1C6.00039 7.85 6.40472 6.85434 7.21339 6.113C8.02139 5.371 8.95039 5 10.0004 5C11.0504 5 11.9797 5.371 12.7884 6.113C13.5964 6.85434 14.0004 7.85 14.0004 9.1C14.0004 9.93334 13.6711 10.8373 13.0124 11.812C12.3544 12.7873 11.3504 13.85 10.0004 15ZM10.0004 10C10.3004 10 10.5547 9.896 10.7634 9.688C10.9714 9.47934 11.0754 9.225 11.0754 8.925C11.0754 8.64167 10.9714 8.39167 10.7634 8.175C10.5547 7.95834 10.3004 7.85 10.0004 7.85C9.70039 7.85 9.44639 7.95834 9.23839 8.175C9.02972 8.39167 8.92539 8.64167 8.92539 8.925C8.92539 9.225 9.02972 9.47934 9.23839 9.688C9.44639 9.896 9.70039 10 10.0004 10Z" fill="#34607B"/>
</svg>
