<svg width="16" height="20" viewBox="0 0 16 20" fill="none" xmlns="http://www.w3.org/2000/svg">
<path fill-rule="evenodd" clip-rule="evenodd" d="M4.75 4.75C4.75 3.88805 5.09241 3.0614 5.7019 2.4519C6.3114 1.84241 7.13805 1.5 8 1.5C8.86195 1.5 9.6886 1.84241 10.2981 2.4519C10.9076 3.0614 11.25 3.88805 11.25 4.75V6H4.75V4.75ZM3.25 6.07V4.75C3.25 3.49022 3.75045 2.28204 4.64124 1.39124C5.53204 0.500445 6.74022 0 8 0C9.25978 0 10.468 0.500445 11.3588 1.39124C12.2496 2.28204 12.75 3.49022 12.75 4.75V6.07C13.6644 6.24454 14.4893 6.73254 15.0825 7.44991C15.6758 8.16728 16.0002 9.06911 16 10V16C16 17.0609 15.5786 18.0783 14.8284 18.8284C14.0783 19.5786 13.0609 20 12 20H4C2.93913 20 1.92172 19.5786 1.17157 18.8284C0.421428 18.0783 1.10915e-07 17.0609 1.10915e-07 16V10C-0.000219014 9.06911 0.324246 8.16728 0.917493 7.44991C1.51074 6.73254 2.33562 6.24454 3.25 6.07ZM8 11.25C8.19891 11.25 8.38968 11.329 8.53033 11.4697C8.67098 11.6103 8.75 11.8011 8.75 12V14C8.75 14.1989 8.67098 14.3897 8.53033 14.5303C8.38968 14.671 8.19891 14.75 8 14.75C7.80109 14.75 7.61032 14.671 7.46967 14.5303C7.32902 14.3897 7.25 14.1989 7.25 14V12C7.25 11.8011 7.32902 11.6103 7.46967 11.4697C7.61032 11.329 7.80109 11.25 8 11.25Z" fill="#28303F"/>
</svg>
