<svg width="82" height="82" viewBox="0 0 82 82" fill="none" xmlns="http://www.w3.org/2000/svg">
<path d="M41.0083 24.2547C31.7554 24.2547 24.2715 31.7557 24.2715 40.9915C24.2715 50.2444 31.7724 57.7283 41.0083 57.7283C50.2611 57.7283 57.745 50.2273 57.745 40.9915C57.745 31.7557 50.2441 24.2547 41.0083 24.2547ZM52.3532 48.5775L51.7579 48.5435C49.2236 48.3904 47.3696 48.8496 46.3661 49.8702C45.4986 50.7716 45.5496 51.8262 45.5496 51.8262L45.6007 52.4385H40.6851V30.7011H38.0147C37.6915 31.9258 37.0282 32.8953 36.0417 33.5926C34.2557 34.8173 31.8915 34.7832 30.7519 34.6812V36.3141H36.8411V51.8772H35.7185V37.4196H29.6293V33.3545L30.2926 33.4736C30.3267 33.4736 33.4053 34.0349 35.3953 32.6571C36.2458 32.0618 36.79 31.1774 36.9942 30.0378L37.0792 29.5785H41.7907V51.3159H44.4611C44.5461 50.7546 44.7842 49.8702 45.5667 49.0878C46.7233 47.8971 48.6283 47.3358 51.2306 47.4039V45.72H45.6347V30.1568H46.7573V44.6144H52.3532V48.5775Z" fill="#34607B"/>
<path d="M12.2125 26.653C12.9358 26.653 13.5222 25.8077 13.5222 24.765C13.5222 23.7223 12.9358 22.877 12.2125 22.877C11.4892 22.877 10.9028 23.7223 10.9028 24.765C10.9028 25.8077 11.4892 26.653 12.2125 26.653Z" fill="#34607B"/>
<path d="M11.0898 29.8677C11.3279 29.6806 11.6171 29.5785 11.9232 29.5275C14.6617 29.1533 14.5936 30.6671 14.5936 30.6671C14.5596 32.385 12.5185 32.402 12.5185 32.402C10.6986 32.368 10.4604 31.1604 10.4604 31.1604C10.4775 30.497 10.7836 30.1058 11.0898 29.8677Z" fill="#34607B"/>
<path d="M18.0294 7.04169C10.4094 12.2124 4.62638 19.8664 1.83691 28.8471L18.0464 44.8695L18.0294 7.04169ZM11.0217 19.2031C11.0217 19.2031 11.0217 20.4447 12.1783 20.3767C12.3484 20.3597 12.5015 20.3427 12.6376 20.2916C12.6886 20.2746 12.7396 20.2576 12.7736 20.2236C12.8077 20.2066 12.8417 20.1896 12.8587 20.1726C12.8927 20.1556 12.9097 20.1215 12.9437 20.1045C12.9607 20.0875 12.9778 20.0705 12.9948 20.0535C13.0288 20.0195 13.0628 19.9855 13.0798 19.9515C13.1138 19.9004 13.1478 19.8494 13.1649 19.7984C13.1989 19.7473 13.2159 19.6963 13.2329 19.6453C13.2329 19.6283 13.2499 19.6113 13.2499 19.5943C13.3179 19.3732 13.3179 19.2031 13.3179 19.2031H13.9132C13.9132 19.2031 14.0153 19.7303 13.8622 20.2746C13.8622 20.2916 13.8452 20.3257 13.8452 20.3427C13.8112 20.4447 13.7772 20.5468 13.7261 20.6318C13.7091 20.6488 13.6921 20.6828 13.6921 20.6998C13.6411 20.7849 13.5901 20.8529 13.522 20.921C13.471 20.972 13.437 21.006 13.386 21.057C13.369 21.074 13.352 21.0911 13.3349 21.0911C13.3179 21.1081 13.2839 21.1251 13.2669 21.1421C13.2329 21.1591 13.1819 21.1931 13.1478 21.2101C13.1308 21.2101 13.1138 21.2271 13.0968 21.2271C13.0628 21.2441 13.0288 21.2611 12.9948 21.2611C12.9778 21.2611 12.9607 21.2781 12.9437 21.2781C12.9267 21.2781 12.8927 21.2952 12.8757 21.2952C12.7056 21.3462 12.5185 21.3802 12.2974 21.3972C11.9912 21.4142 11.7191 21.3802 11.498 21.2952C11.464 21.2781 11.4129 21.2611 11.3789 21.2441C11.3449 21.2271 11.3109 21.2101 11.2769 21.1931L11.2258 21.1591C11.1918 21.1421 11.1578 21.1081 11.1238 21.0911C11.0728 21.057 11.0217 21.006 10.9707 20.955C10.9537 20.938 10.9367 20.921 10.9197 20.8869C10.8686 20.8189 10.8176 20.7509 10.7666 20.6828C10.7326 20.6318 10.6986 20.5808 10.6816 20.5127C10.6475 20.4617 10.6305 20.4107 10.6135 20.3427C10.5795 20.2576 10.5625 20.1726 10.5285 20.0875C10.3924 19.5943 10.4434 19.135 10.4434 19.135H11.0217V19.2031ZM14.8487 24.1016C15.0528 24.9181 14.8487 25.7855 14.3044 26.4148C13.1649 27.7245 11.3959 27.1802 11.3959 27.1802L10.9537 27.7585C10.9707 28.0137 11.1408 28.1498 11.2939 28.2348C11.4299 28.3028 11.6 28.3369 11.7531 28.3369L13.3349 28.3028C13.352 28.3028 13.369 28.3028 13.403 28.3028C13.6751 28.2858 15.8012 28.2178 15.7672 30.1398C15.7332 31.4155 14.8828 32.2149 14.2364 32.6401C13.8622 32.8782 13.454 33.0483 13.0118 33.1504C10.8686 33.6436 9.83111 32.7081 9.83111 32.7081C9.83111 32.7081 9.23579 32.402 9.09972 31.4155C8.96365 30.4289 10.6475 29.4594 10.6475 29.4594C9.37186 29.0002 9.42289 27.8776 9.42289 27.8776C10.2903 27.5714 10.7836 26.9931 10.7836 26.9931C10.7836 26.9931 9.57597 26.4148 9.4399 25.1392C9.30383 23.8465 10.1032 23.1321 10.1032 23.1321C10.1032 23.1321 10.8686 22.2817 12.0763 22.2477C13.2669 22.2136 13.8112 22.7239 13.8112 22.7239L16.1584 22.4518L15.5121 23.5233H14.5596C14.6957 23.6424 14.7977 23.8635 14.8487 24.1016Z" fill="#34607B"/>
<path d="M0.62933 33.8307C0.221116 36.161 0 38.5592 0 41.0085C0 47.8631 1.68388 54.3095 4.64343 59.9905H27.0612L0.62933 33.8307ZM6.59946 45.8901C6.61647 45.8561 6.61647 45.839 6.63348 45.822C6.70151 45.703 6.78656 45.5839 6.88861 45.4819C6.90562 45.4649 6.92263 45.4478 6.95665 45.4308C7.00767 45.3798 7.07571 45.3458 7.14375 45.3118C7.17776 45.2948 7.19477 45.2948 7.22879 45.2778C7.2458 45.2778 7.26281 45.2607 7.27982 45.2607C7.38187 45.2267 7.50093 45.2097 7.62 45.2097C7.637 45.2097 7.67102 45.2097 7.68803 45.2097C7.70504 45.2097 7.73906 45.2097 7.75607 45.2097C7.75607 45.2097 7.75607 45.2097 7.77308 45.2097C7.79008 45.2097 7.80709 45.2097 7.8241 45.2097H7.84111C7.87513 45.2097 7.89214 45.2097 7.94317 45.2267H7.96017C7.99419 45.2437 8.02821 45.2437 8.07924 45.2607C8.09624 45.2607 8.11325 45.2778 8.11325 45.2778C8.13026 45.2778 8.14727 45.2948 8.14727 45.2948H8.16428C8.18129 45.2948 8.1983 45.3118 8.21531 45.3118C8.3854 45.3798 8.60651 45.4649 8.91267 45.6179C8.94669 45.6349 8.98071 45.6519 9.03174 45.669C9.16781 45.737 9.30388 45.805 9.45696 45.8901C9.45696 45.8901 9.64406 45.9581 9.79714 45.805C9.79714 45.805 9.79714 45.805 9.81415 45.788L9.83115 45.771C9.84816 45.754 9.84816 45.754 9.84816 45.737C9.86517 45.72 9.86517 45.703 9.88218 45.686C9.88218 45.669 9.89919 45.6519 9.89919 45.6349V45.6179C9.9162 45.5839 9.9162 45.5669 9.93321 45.5329C9.93321 45.5159 9.95022 45.4989 9.95022 45.4819C9.95022 45.4478 9.96723 45.4308 9.96723 45.3968C9.96723 45.3628 9.96723 45.3288 9.98424 45.2948C9.98424 45.2607 9.98424 45.2097 9.98424 45.1757H10.9708C10.9708 45.1927 10.9878 45.2267 10.9878 45.2948C10.9878 45.2948 10.9878 45.3118 10.9878 45.3288C10.9878 45.3458 10.9878 45.3458 10.9878 45.3628C10.9878 45.3798 10.9878 45.3798 10.9878 45.3968C10.9878 45.4478 10.9878 45.4989 10.9878 45.5499C10.9878 45.5669 10.9878 45.6009 10.9878 45.6179V45.6349C10.9878 45.6519 10.9878 45.669 10.9878 45.686C10.9878 45.703 10.9878 45.703 10.9878 45.72V45.754C10.9878 45.771 10.9878 45.788 10.9878 45.805C10.9878 45.839 10.9878 45.8561 10.9708 45.8901C10.9708 45.9071 10.9708 45.9241 10.9537 45.9581C10.9537 45.9751 10.9537 45.9921 10.9367 46.0261C10.9367 46.0602 10.9197 46.1112 10.9027 46.1452C10.8857 46.1792 10.8857 46.2303 10.8687 46.2643C10.7837 46.4854 10.6646 46.7065 10.4435 46.8766C10.4095 46.9106 10.3584 46.9276 10.3244 46.9616C10.2734 46.9786 10.2394 47.0127 10.1883 47.0297C10.1713 47.0297 10.1543 47.0467 10.1373 47.0467C10.1203 47.0467 10.1033 47.0637 10.0863 47.0637C10.0693 47.0637 10.0693 47.0807 10.0523 47.0807H10.0353H10.0183C9.98424 47.0807 9.96723 47.0977 9.93321 47.0977C9.9162 47.0977 9.88218 47.1147 9.86517 47.1147C9.84816 47.1147 9.83115 47.1147 9.81415 47.1147C9.79714 47.1147 9.79714 47.1147 9.78013 47.1147C9.78013 47.1147 9.78013 47.1147 9.76312 47.1147C9.74611 47.1147 9.7291 47.1147 9.7291 47.1147C9.7291 47.1147 9.69508 47.1147 9.61004 47.1147C9.59303 47.1147 9.57602 47.1147 9.55901 47.1147C9.542 47.1147 9.50799 47.1147 9.49098 47.0977C9.47397 47.0977 9.45696 47.0977 9.45696 47.0977C9.43995 47.0977 9.42294 47.0977 9.42294 47.0977C9.28687 47.0637 9.09977 47.0127 8.87866 46.9276C8.84464 46.9106 8.79361 46.8936 8.74258 46.8766C8.70857 46.8596 8.65754 46.8426 8.62352 46.8256C8.50446 46.7745 8.40241 46.7065 8.26633 46.6385C8.21531 46.6045 8.18129 46.5874 8.13026 46.5534C8.11325 46.5364 8.07924 46.5194 8.06223 46.5194C8.04522 46.5024 8.0112 46.4854 7.99419 46.4684C7.96017 46.4514 7.92616 46.4344 7.89214 46.4003C7.89214 46.4003 7.72205 46.3663 7.58598 46.5194C7.56897 46.5364 7.56897 46.5534 7.55196 46.5704C7.53495 46.5874 7.51794 46.6215 7.50093 46.6555C7.48392 46.6725 7.48392 46.7065 7.46692 46.7235C7.41589 46.8426 7.39888 46.9957 7.38187 47.1998H6.37834C6.37834 47.2168 6.34433 46.4684 6.59946 45.8901ZM10.8177 57.5072V52.9658C10.8177 52.9318 10.8177 52.9148 10.8177 52.8807C10.8177 52.8297 10.8177 52.7787 10.8177 52.7277C10.8177 52.6766 10.8177 52.6086 10.8177 52.5236C10.8177 52.5065 10.8177 52.4895 10.8177 52.4555C10.8177 52.4385 10.8177 52.4045 10.8177 52.3875C10.8177 52.3705 10.8177 52.3705 10.8177 52.3535C10.8177 52.3365 10.8177 52.3365 10.8177 52.3194C10.8177 52.3024 10.8177 52.3024 10.8177 52.2854C10.8177 52.2684 10.8177 52.2514 10.8177 52.2344V52.2174V52.2004V52.1834C10.8177 52.1664 10.8177 52.1664 10.8177 52.1494C10.8177 52.1323 10.8177 52.1153 10.8177 52.0983C10.8177 52.0813 10.8177 52.0813 10.8177 52.0643C10.8177 52.0473 10.8177 52.0303 10.8177 52.0303C10.8177 52.0133 10.8177 51.9963 10.8177 51.9793C10.8177 51.9623 10.8177 51.9623 10.8177 51.9452C10.8177 51.9282 10.8177 51.9112 10.8177 51.8772C10.8177 51.8602 10.8177 51.8432 10.8177 51.8262C10.8177 51.8092 10.8177 51.8092 10.8177 51.7922C10.8177 51.7922 10.8177 51.7922 10.8177 51.7752C10.8177 51.7582 10.8177 51.7241 10.8007 51.7071C10.8007 51.6901 10.8007 51.6561 10.7837 51.6391C10.7837 51.6221 10.7837 51.6221 10.7837 51.6051V51.5881C10.7837 51.5711 10.7837 51.5711 10.7837 51.554V51.537C10.7837 51.503 10.7666 51.452 10.7496 51.418C10.7326 51.3499 10.7156 51.2989 10.6986 51.2309C10.6816 51.1628 10.6476 51.0778 10.6136 51.0098C10.5966 50.9757 10.5795 50.9417 10.5625 50.8907C10.5455 50.8737 10.5455 50.8397 10.5285 50.8227V50.8057V50.7886V50.7716V50.7546C10.5115 50.7376 10.5115 50.7036 10.4945 50.6866C10.4605 50.6186 10.4095 50.5505 10.3584 50.4825C10.3074 50.4144 10.2564 50.3634 10.2054 50.2954C10.1543 50.2444 10.1033 50.1933 10.0523 50.1593C10.0012 50.1253 9.93321 50.0743 9.86517 50.0403C9.84816 50.0232 9.83115 50.0232 9.81415 50.0062C9.79714 49.9892 9.76312 49.9892 9.74611 49.9722C9.7291 49.9722 9.7291 49.9722 9.71209 49.9552C9.69508 49.9382 9.67807 49.9382 9.64406 49.9382C9.61004 49.9212 9.57602 49.9042 9.52499 49.9042C9.49098 49.9042 9.47397 49.8872 9.43995 49.8872H9.42294C9.38892 49.8872 9.37191 49.8702 9.3379 49.8702C9.32089 49.8702 9.32089 49.8702 9.30388 49.8702C9.28687 49.8702 9.25285 49.8532 9.23584 49.8532H9.21883C9.21883 49.8532 9.21883 49.8532 9.20182 49.8532C9.16781 49.8532 9.1508 49.8532 9.11678 49.8532C9.09977 49.8532 9.09977 49.8532 9.08276 49.8532C9.04875 49.8532 9.01473 49.8532 8.98071 49.8532C8.9637 49.8532 8.94669 49.8532 8.92968 49.8532C8.89566 49.8532 8.87866 49.8532 8.86165 49.8532C8.84464 49.8532 8.82763 49.8532 8.81062 49.8532H8.79361C8.7766 49.8532 8.74258 49.8532 8.72558 49.8532H8.70857C8.67455 49.8532 8.65754 49.8532 8.62352 49.8702C8.60651 49.8702 8.60651 49.8702 8.5895 49.8702C8.57249 49.8702 8.57249 49.8702 8.55549 49.8702C8.53848 49.8702 8.52147 49.8702 8.50446 49.8872C8.45343 49.8872 8.41941 49.9042 8.36839 49.9212C8.31736 49.9382 8.26633 49.9552 8.1983 49.9722C8.14727 49.9892 8.09624 50.0062 8.04522 50.0232C8.02821 50.0403 7.99419 50.0402 7.97718 50.0573C7.92616 50.0743 7.89214 50.1083 7.84111 50.1253C7.70504 50.2103 7.58598 50.2954 7.50093 50.3804C7.48392 50.3974 7.46692 50.4144 7.44991 50.4315C7.4329 50.4315 7.4329 50.4485 7.4329 50.4485C7.41589 50.4655 7.38187 50.4995 7.36486 50.5165C7.27982 50.6186 7.21178 50.7036 7.16075 50.7886C7.14375 50.8227 7.12674 50.8567 7.10973 50.8907C7.09272 50.9247 7.07571 50.9417 7.07571 50.9417C7.0587 50.9757 7.04169 51.0098 7.02468 51.0608C7.00767 51.0948 6.99067 51.1288 6.97366 51.1628C6.97366 51.1798 6.97366 51.1798 6.95665 51.1798C6.93964 51.2139 6.93964 51.2479 6.92263 51.2819C6.83759 51.503 6.80357 51.7071 6.76955 51.8602C6.76955 51.8772 6.76955 51.8942 6.75254 51.9112C6.75254 51.9453 6.75254 51.9623 6.75254 51.9793C6.75254 51.9963 6.75254 52.0133 6.75254 52.0303C6.73553 52.1834 6.73553 52.2684 6.73553 52.2684V57.4902H5.05165L4.93259 48.5945H6.44638L6.58245 49.9552C6.58245 49.9552 6.6845 49.7341 6.93964 49.4619C6.95665 49.4449 6.97366 49.4109 7.00767 49.3939C7.02468 49.3769 7.02468 49.3769 7.04169 49.3599C7.48392 48.9007 8.28334 48.3564 9.542 48.3904C10.0183 48.4074 10.4265 48.5095 10.7837 48.6795C10.8177 48.6965 10.8517 48.7136 10.9027 48.7306C10.9367 48.7476 10.9708 48.7646 11.0048 48.7986C11.0728 48.8326 11.1408 48.8836 11.2089 48.9347C11.3109 49.0027 11.396 49.0707 11.481 49.1558C11.5491 49.2238 11.6171 49.2919 11.6851 49.3599C11.7532 49.4279 11.8212 49.513 11.8722 49.581C12.1954 50.0062 12.3995 50.5165 12.4845 51.0438C12.5016 51.0948 12.5016 51.1458 12.5016 51.1969C12.5356 51.503 12.5696 51.9112 12.5696 52.4215V57.5072H10.8177Z" fill="#34607B"/>
<path d="M28.0988 67.0662V70.1448C24.1527 70.553 24.2548 68.597 24.2548 68.597C24.1867 66.3858 28.0988 67.0662 28.0988 67.0662Z" fill="#34607B"/>
<path d="M6.93945 63.8345C12.0591 71.4545 19.6621 77.2715 28.6088 80.112L44.1039 64.3277L6.93945 63.8345ZM28.1156 75.4856V71.4545H27.044C26.5677 71.4545 26.1085 71.5565 25.7003 71.7947C25.3091 71.9988 24.9179 72.3389 24.7308 72.8832C24.3056 74.1079 23.6422 75.4856 23.6422 75.4856H21.6182C21.6182 75.4856 22.2475 74.8563 22.7407 73.0363C23.217 71.2334 24.5947 70.8762 24.5947 70.8762C23.302 70.7231 22.7407 70.0427 22.4856 69.4304C22.1794 68.716 22.2645 67.8996 22.6557 67.2363C23.6082 65.6374 26.0235 65.6374 26.5337 65.6714C26.6018 65.6714 26.6528 65.6714 26.7208 65.6714C27.7584 65.6374 30.0546 65.8585 30.0546 65.8585V75.4856H28.1156Z" fill="#34607B"/>
<path d="M29.8675 8.50446V13.7942C29.8675 13.7942 28.5748 10.8517 26.3127 10.3754C26.2956 10.3754 27.7244 8.65754 29.8675 8.50446Z" fill="#34607B"/>
<path d="M41.0086 0C34.137 0 27.6737 1.68388 21.9927 4.66044V26.9761L48.5436 0.697366C46.0943 0.238125 43.577 0 41.0086 0ZM31.0414 6.12321V7.10973C31.0414 7.10973 31.1435 7.10973 31.3136 7.12674C31.3306 7.12674 31.3646 7.12674 31.3816 7.14375C31.4496 7.14375 31.5347 7.16075 31.6367 7.17776C31.6537 7.17776 31.6707 7.17776 31.6707 7.17776C31.8238 7.21178 31.9769 7.2458 32.147 7.29683C32.2491 7.33084 32.3341 7.36486 32.4362 7.39888C32.4702 7.41589 32.5042 7.4329 32.5382 7.44991C32.6743 7.50093 32.7933 7.56897 32.9294 7.637C32.9634 7.65401 32.9804 7.67102 33.0145 7.68803C33.0655 7.72205 33.1165 7.75607 33.1675 7.79008C33.2016 7.80709 33.2356 7.8241 33.2526 7.85812C33.2866 7.87513 33.3036 7.90915 33.3376 7.92616C33.3376 7.92616 33.3546 7.92616 33.3546 7.94317C33.3546 7.94317 33.3716 7.94316 33.3716 7.96017C33.3886 7.96017 33.3886 7.97718 33.4057 7.97718C33.4227 7.99419 33.4397 8.0112 33.4567 8.02821C33.4737 8.04522 33.4907 8.06223 33.5077 8.07924C33.5247 8.07924 33.5247 8.09624 33.5417 8.09624L33.5587 8.11325C33.5757 8.13026 33.6098 8.14727 33.6268 8.16428C33.6608 8.18129 33.6778 8.21531 33.7118 8.23232C33.7288 8.26633 33.7628 8.28334 33.7799 8.31736C33.8989 8.45343 34.018 8.5895 34.12 8.75959C34.137 8.79361 34.1711 8.82763 34.1881 8.86165C34.2051 8.87866 34.2221 8.91267 34.2391 8.92968L34.2561 8.94669C34.2731 8.9637 34.2731 8.98071 34.2731 8.99772C34.3071 9.04875 34.3241 9.09977 34.3411 9.13379C34.3411 9.1508 34.3582 9.16781 34.3582 9.18482C34.3582 9.20183 34.3752 9.21883 34.3752 9.21883C34.4092 9.28687 34.4432 9.37191 34.4772 9.43995C34.4942 9.47397 34.4942 9.49098 34.5112 9.52499C34.5453 9.61004 34.5793 9.69508 34.5963 9.78013C34.6133 9.81415 34.6133 9.84816 34.6303 9.88218V9.89919C34.6303 9.93321 34.6473 9.95022 34.6473 9.98424C34.6473 9.98424 34.6473 9.98423 34.6473 10.0012V10.0183V10.0353C34.6473 10.0523 34.6643 10.0693 34.6643 10.0863C34.6643 10.0863 34.6643 10.0863 34.6643 10.1033C34.6643 10.1203 34.6813 10.1373 34.6813 10.1543C34.6813 10.1713 34.6813 10.1883 34.6983 10.2054C34.6983 10.2224 34.6983 10.2224 34.6983 10.2394C34.6983 10.2564 34.7153 10.2904 34.7153 10.3074C34.7153 10.3074 34.7153 10.3074 34.7153 10.3244C34.7153 10.3414 34.7153 10.3584 34.7324 10.3924C34.7324 10.3924 34.7324 10.3924 34.7324 10.4095V10.4265V10.4435V10.4605C34.7324 10.4945 34.7494 10.5455 34.7494 10.5795C34.7494 10.6136 34.7664 10.6646 34.7664 10.6986C34.7664 10.6986 34.7664 10.6986 34.7664 10.7156C34.7664 10.7326 34.7664 10.7326 34.7664 10.7496V10.7666V10.7837V10.8007C34.7664 10.8177 34.7664 10.8177 34.7664 10.8347C34.7664 10.8517 34.7664 10.8687 34.7664 10.9027C34.7664 11.0048 34.7664 11.1238 34.7494 11.2769C34.7494 11.2939 34.7494 11.3279 34.7494 11.3449C34.7494 11.396 34.7324 11.43 34.7324 11.481C34.7324 11.498 34.7324 11.532 34.7153 11.5491C34.7153 11.5661 34.7153 11.6001 34.6983 11.6171C34.6983 11.6341 34.6813 11.6681 34.6813 11.6851C34.6813 11.7021 34.6643 11.7362 34.6643 11.7532C34.6643 11.7702 34.6473 11.8042 34.6473 11.8212C34.6473 11.8382 34.6303 11.8552 34.6303 11.8722C34.6303 11.8892 34.6133 11.9062 34.6133 11.9233C34.5963 11.9573 34.5793 12.0083 34.5623 12.0423C34.5112 12.1614 34.4602 12.2804 34.3922 12.3825C34.3752 12.4165 34.3582 12.4335 34.3411 12.4675C34.3071 12.5016 34.2901 12.5526 34.2561 12.5866C34.2391 12.6036 34.2051 12.6376 34.1881 12.6546C34.086 12.7567 33.967 12.8587 33.8139 12.9268C33.7799 12.9438 33.7458 12.9608 33.7118 12.9778C33.6948 12.9948 33.6608 12.9948 33.6438 13.0118C33.6098 13.0288 33.5757 13.0288 33.5417 13.0458C33.5077 13.0628 33.4567 13.0628 33.4227 13.0799C33.3887 13.0969 33.3376 13.0969 33.3036 13.0969C33.2186 13.1139 33.1335 13.1139 33.0315 13.1139C33.0315 13.1139 32.4872 13.1309 32.096 12.7397C32.079 12.7227 32.0449 12.6887 32.0279 12.6716L32.0109 12.6546C32.0109 12.6546 32.0109 12.6546 32.0109 12.6376C32.0109 12.6206 31.9939 12.6206 31.9939 12.6036C31.9769 12.5866 31.9769 12.5696 31.9599 12.5526C31.9599 12.5526 31.9599 12.5526 31.9599 12.5356C31.9599 12.5186 31.9429 12.5186 31.9429 12.5016C31.9429 12.5016 31.9429 12.5016 31.9429 12.4845C31.9429 12.4675 31.9259 12.4675 31.9259 12.4505C31.9259 12.4505 31.9259 12.4505 31.9259 12.4335C31.9259 12.4165 31.9089 12.3995 31.9089 12.3825C31.9089 12.3655 31.8919 12.3485 31.8919 12.3315C31.8749 12.2974 31.8578 12.2464 31.8578 12.2124C31.8578 12.1954 31.8408 12.1784 31.8408 12.1444V12.1274V12.1103V12.0933C31.8408 12.0763 31.8408 12.0763 31.8408 12.0593V12.0423C31.8408 12.0253 31.8238 11.9913 31.8238 11.9743C31.8238 11.9573 31.8238 11.9403 31.8238 11.9233C31.8238 11.9062 31.8238 11.8892 31.8238 11.8722C31.8238 11.8722 31.8238 11.8552 31.8238 11.8212V11.8042C31.8238 11.7872 31.8238 11.7872 31.8238 11.7702V11.7532C31.8238 11.7362 31.8238 11.7191 31.8238 11.7021C31.8238 11.7021 31.8238 11.7021 31.8238 11.6851C31.8238 11.6681 31.8238 11.6511 31.8408 11.6341V11.6171V11.6001C31.8408 11.5831 31.8408 11.5661 31.8578 11.5491C31.8578 11.532 31.8749 11.515 31.8749 11.498C31.8749 11.498 31.8749 11.481 31.8919 11.481C31.8919 11.481 31.8919 11.464 31.9089 11.447C31.9599 11.3109 32.0279 11.1749 32.164 11.0388L32.181 11.0218C32.198 11.0048 32.215 10.9878 32.232 10.9708C32.2661 10.9367 32.3001 10.9197 32.3511 10.8857C32.3681 10.8687 32.3851 10.8517 32.4191 10.8517C32.4362 10.8517 32.4362 10.8347 32.4532 10.8347C32.4702 10.8177 32.5042 10.8177 32.5212 10.8007C32.5382 10.8007 32.5552 10.7837 32.5552 10.7837C32.5722 10.7837 32.5722 10.7837 32.5892 10.7666C32.6062 10.7666 32.6062 10.7666 32.6233 10.7496H32.6403H32.6573C32.6743 10.7496 32.6913 10.7326 32.7253 10.7326C32.7423 10.7326 32.7423 10.7326 32.7593 10.7326C32.7763 10.7326 32.7763 10.7326 32.7933 10.7326C32.7933 10.7326 32.7933 10.7326 32.8103 10.7326C32.8274 10.7326 32.8274 10.7326 32.8444 10.7326H32.8614C32.8784 10.7326 32.8954 10.7326 32.8954 10.7326C32.8954 10.7326 32.8954 10.7326 32.9124 10.7326C32.9124 10.7326 32.9124 10.7326 32.9294 10.7326C32.9464 10.7326 32.9634 10.7326 32.9804 10.7326C33.0145 10.7326 33.0315 10.7326 33.0655 10.7326C33.0655 10.7326 33.0995 10.7326 33.1335 10.7326C33.1335 10.7326 33.1335 10.7326 33.1505 10.7326H33.1675C33.1845 10.7326 33.2016 10.7326 33.2186 10.7326H33.2356H33.2526H33.2696H33.2866H33.3036C33.3206 10.7326 33.3206 10.7326 33.3376 10.7326C33.3546 10.7326 33.3716 10.7496 33.3887 10.7496C33.4057 10.7496 33.4057 10.7496 33.4227 10.7666C33.4397 10.7666 33.4567 10.7837 33.4567 10.7837C33.5757 10.8177 33.7118 10.8857 33.8309 11.0048C33.8479 11.0218 33.8649 11.0218 33.8649 11.0388C33.984 11.1579 34.086 11.3279 34.137 11.5491C34.137 11.5491 34.137 11.532 34.1541 11.498C34.1541 11.481 34.1541 11.464 34.1711 11.447C34.1711 11.413 34.1881 11.396 34.1881 11.362C34.1881 11.3279 34.2051 11.2769 34.2051 11.2259V11.2089C34.2561 10.7837 34.2391 10.0183 33.6098 9.40593C33.5587 9.35491 33.5247 9.32089 33.4737 9.26986C33.4227 9.21883 33.3716 9.18482 33.3036 9.1508C33.2696 9.11678 33.2186 9.09977 33.1845 9.06575C33.0995 9.01473 33.0145 8.9637 32.9124 8.91267C32.8444 8.87866 32.7593 8.84464 32.6913 8.81062C32.5552 8.75959 32.4021 8.70857 32.2491 8.65754C32.181 8.64053 32.113 8.62352 32.062 8.60651C31.7558 8.53848 31.4156 8.48745 31.0244 8.45343V16.3626L30.3951 15.9714C30.3951 15.9714 30.3951 15.9714 30.3951 15.9544V15.9374V15.9203C30.3951 15.9033 30.3781 15.8693 30.3611 15.8353V15.8183C30.3611 15.8013 30.3441 15.7843 30.3441 15.7843C30.327 15.7503 30.327 15.7162 30.31 15.6822C30.293 15.6482 30.276 15.6142 30.276 15.5802C30.276 15.5632 30.259 15.5462 30.259 15.5291C30.242 15.4951 30.225 15.4611 30.208 15.4101C30.191 15.3761 30.174 15.325 30.157 15.291C30.1399 15.24 30.1229 15.206 30.0889 15.1549C30.0039 14.9849 29.9188 14.8148 29.7998 14.6107C29.6977 14.4406 29.5787 14.2535 29.4426 14.0664C29.3916 13.9983 29.3575 13.9473 29.3065 13.8793C29.2045 13.7602 29.1194 13.6241 29.0003 13.5051C28.9493 13.437 28.8983 13.386 28.8303 13.318C28.1499 12.5866 27.2144 11.9062 25.9898 11.6681L24.561 9.93321C24.561 9.93321 24.561 9.93321 24.578 9.9162C24.578 9.9162 24.578 9.9162 24.578 9.89919C24.578 9.89919 24.595 9.88218 24.595 9.86517C24.595 9.86517 24.595 9.86517 24.612 9.84816C24.6291 9.83115 24.6631 9.79714 24.6801 9.76312C24.6971 9.74611 24.6971 9.74611 24.7141 9.7291C24.7141 9.7291 24.7141 9.7291 24.7311 9.71209L24.7481 9.69508L24.7651 9.67807C24.7821 9.64406 24.8162 9.62705 24.8502 9.59303C24.8672 9.57602 24.9012 9.542 24.9182 9.52499C24.9182 9.50799 24.9352 9.50799 24.9352 9.49098C24.9522 9.47397 24.9692 9.45696 24.9862 9.43995C25.0033 9.42294 25.0203 9.40593 25.0373 9.38892C25.2924 9.13379 25.6326 8.82763 26.0748 8.50446C26.1258 8.47044 26.1939 8.41941 26.2619 8.3854C26.7892 8.02821 27.4525 7.65401 28.2179 7.38187C28.303 7.34785 28.405 7.31383 28.4901 7.27982C28.5921 7.2458 28.6772 7.22879 28.7792 7.19477C28.8643 7.17776 28.9493 7.14375 29.0514 7.12674C29.3065 7.0587 29.5787 7.00767 29.8678 6.97366V6.02116L24.425 5.97013V4.9666H36.025V6.12321H31.0414Z" fill="#34607B"/>
<path d="M41.0083 24.2547C31.7554 24.2547 24.2715 31.7557 24.2715 40.9915C24.2715 50.2444 31.7724 57.7283 41.0083 57.7283C50.2611 57.7283 57.745 50.2273 57.745 40.9915C57.745 31.7557 50.2441 24.2547 41.0083 24.2547ZM52.3532 48.5775L51.7579 48.5435C49.2236 48.3904 47.3696 48.8496 46.3661 49.8702C45.4986 50.7716 45.5496 51.8262 45.5496 51.8262L45.6007 52.4385H40.6851V30.7011H38.0147C37.6915 31.9258 37.0282 32.8953 36.0417 33.5926C34.2557 34.8173 31.8915 34.7832 30.7519 34.6812V36.3141H36.8411V51.8772H35.7185V37.4196H29.6293V33.3545L30.2926 33.4736C30.3267 33.4736 33.4053 34.0349 35.3953 32.6571C36.2458 32.0618 36.79 31.1774 36.9942 30.0378L37.0792 29.5785H41.7907V51.3159H44.4611C44.5461 50.7546 44.7842 49.8702 45.5667 49.0878C46.7233 47.8971 48.6283 47.3358 51.2306 47.4039V45.72H45.6347V30.1568H46.7573V44.6144H52.3532V48.5775Z" fill="#34607B"/>
<path d="M59.9734 54.4796L33.5586 81.3366C35.9739 81.7789 38.4572 82.017 41.0085 82.017C47.9992 82.017 54.5646 80.2651 60.3306 77.1865L59.9734 54.4796ZM54.4455 78.3091C54.3605 78.3601 54.2584 78.3941 54.1734 78.4281C54.1224 78.4451 54.0884 78.4621 54.0373 78.4791C53.9523 78.5132 53.8502 78.5472 53.7652 78.5812C53.7142 78.5982 53.6801 78.6152 53.6291 78.6322C53.5781 78.6492 53.5441 78.6662 53.493 78.6833C53.2209 78.7683 52.9658 78.8363 52.7106 78.8703C52.5916 78.8874 52.4555 78.9214 52.3534 78.9384C51.469 79.0745 50.8226 79.0234 50.8226 79.0234C50.4144 79.0234 50.0572 78.9894 49.7341 78.9554C49.649 78.9384 49.564 78.9214 49.4789 78.9214C49.4619 78.9214 49.4449 78.9214 49.4279 78.9044C49.3599 78.8874 49.2918 78.8703 49.2238 78.8533C48.7816 78.7513 48.4074 78.5982 48.1012 78.4281C48.0332 78.3941 47.9651 78.3601 47.9141 78.3091C47.608 78.1049 47.3698 77.8838 47.1997 77.6627C47.1827 77.6457 47.1657 77.6287 47.1657 77.6117C47.1487 77.5777 47.1317 77.5607 47.1147 77.5436C47.1147 77.5266 47.0977 77.5266 47.0977 77.5096C47.0977 77.5096 47.0977 77.4926 47.0807 77.4926C47.0637 77.4756 47.0637 77.4586 47.0467 77.4586C46.9786 77.3736 46.9276 77.2715 46.8936 77.1865C46.8596 77.1184 46.8256 77.0504 46.8085 76.9824C46.7915 76.9313 46.7745 76.8973 46.7575 76.8463C46.7405 76.7953 46.7235 76.7442 46.7065 76.6762C46.7065 76.6592 46.6895 76.6252 46.6895 76.6082C46.6895 76.5912 46.6725 76.5571 46.6725 76.5401C46.6555 76.5061 46.6555 76.4721 46.6555 76.4381C46.6555 76.4211 46.6555 76.4041 46.6385 76.387C46.6385 76.387 46.6385 76.387 46.6385 76.37C46.6385 76.353 46.6385 76.319 46.6214 76.302C46.6214 76.285 46.6214 76.268 46.6214 76.251C46.6214 76.234 46.6214 76.234 46.6214 76.217V76.1999V76.1829C46.6214 76.1659 46.6214 76.1659 46.6214 76.1489C46.6044 76.0128 46.6044 75.9278 46.6044 75.9278C46.5704 75.6387 46.5874 75.3665 46.6214 75.1284C46.6385 74.9923 46.6725 74.8562 46.7235 74.7202C46.7405 74.6521 46.7745 74.5671 46.8085 74.4991C46.8256 74.448 46.8426 74.414 46.8766 74.363C46.8936 74.312 46.9276 74.2779 46.9446 74.2439C46.9616 74.2099 46.9956 74.1589 47.0126 74.1249C47.0297 74.1078 47.0467 74.0908 47.0467 74.0738C47.0807 74.0398 47.0977 74.0058 47.1317 73.9718C47.1657 73.9378 47.1827 73.9037 47.2168 73.8697C47.3358 73.7337 47.4719 73.6316 47.5909 73.5295C47.642 73.4955 47.693 73.4615 47.727 73.4275C47.761 73.4105 47.7951 73.3935 47.8291 73.3765C47.8631 73.3595 47.8971 73.3424 47.9141 73.3254C47.9481 73.3084 47.9822 73.2914 47.9992 73.2744C48.0162 73.2744 48.0332 73.2574 48.0502 73.2574C48.0842 73.2404 48.1012 73.2234 48.1352 73.2234C48.2033 73.1894 48.2713 73.1724 48.3223 73.1383C48.3393 73.1213 48.3734 73.1213 48.3904 73.1213C48.4074 73.1213 48.4244 73.1043 48.4414 73.1043C48.5434 73.0703 48.6115 73.0533 48.6115 73.0533C48.4074 73.0023 48.2203 72.9172 48.0502 72.8322C48.0162 72.8152 47.9651 72.7812 47.9311 72.7641C47.8801 72.7301 47.8121 72.6791 47.761 72.6451C47.727 72.6111 47.693 72.5941 47.659 72.56C46.8256 71.7946 46.8596 70.587 46.8596 70.587C46.8766 70.2128 46.9276 69.8896 47.0297 69.6005C47.0467 69.5495 47.0807 69.4814 47.0977 69.4304C47.1487 69.2943 47.2338 69.1753 47.3018 69.0732C47.3358 69.0222 47.3868 68.9712 47.4209 68.9031C47.4549 68.8521 47.5059 68.8011 47.5569 68.75C48.3223 67.9336 49.547 67.6785 50.2954 67.6104C50.3294 67.6104 50.3804 67.6104 50.4144 67.5934C50.7546 67.5594 50.9757 67.5764 50.9757 67.5764C52.7447 67.5084 54.4285 68.1377 54.4285 68.1377V70.3149H54.1734C54.1734 70.3149 53.5271 69.3794 51.1458 69.2773C50.1593 69.2433 49.598 69.4814 49.2918 69.7876C49.2748 69.8046 49.2578 69.8216 49.2578 69.8386C49.2408 69.8556 49.2238 69.8726 49.2238 69.8896C49.2068 69.9066 49.2068 69.9066 49.1898 69.9237C49.1558 69.9747 49.1218 70.0257 49.0877 70.0767C49.0367 70.1618 49.0027 70.2298 48.9857 70.3149C48.9857 70.3319 48.9687 70.3489 48.9687 70.3829C48.9687 70.3999 48.9517 70.4169 48.9517 70.4339C48.9517 70.4509 48.9517 70.4679 48.9347 70.4849C48.9347 70.502 48.9347 70.502 48.9347 70.519C48.9347 70.519 48.9347 70.519 48.9347 70.536C48.9347 70.536 48.9347 70.536 48.9347 70.553C48.9347 70.57 48.9347 70.57 48.9347 70.587C48.9347 70.604 48.9347 70.621 48.9347 70.621C48.9347 70.638 48.9347 70.638 48.9347 70.655C48.9347 70.7061 48.9347 70.7401 48.9347 70.7401C48.9176 70.9272 48.9347 71.0803 48.9857 71.2163C49.0027 71.2674 49.0197 71.3014 49.0367 71.3524C49.0537 71.3694 49.0537 71.4034 49.0707 71.4204C49.0707 71.4374 49.0877 71.4375 49.0877 71.4545C49.1047 71.4715 49.1218 71.4885 49.1218 71.5225C49.1388 71.5395 49.1558 71.5735 49.1728 71.5905C49.1898 71.6075 49.2068 71.6416 49.2408 71.6586C50.1083 72.543 52.5065 72.2029 52.5065 72.2029V73.9378H50.4314C50.4314 73.9378 50.3804 73.9378 50.2784 73.9378C50.2614 73.9378 50.2443 73.9378 50.2273 73.9378C50.1933 73.9378 50.1593 73.9378 50.1083 73.9548C50.0913 73.9548 50.0743 73.9548 50.0572 73.9548C49.9042 73.9718 49.7171 74.0228 49.53 74.1079C49.513 74.1079 49.4959 74.1249 49.4789 74.1249C49.3259 74.1929 49.1898 74.2949 49.0537 74.414C49.0367 74.431 49.0367 74.431 49.0197 74.448C49.0027 74.465 49.0027 74.465 48.9857 74.482C48.9687 74.4991 48.9347 74.5331 48.9176 74.5501C48.8836 74.6011 48.8326 74.6521 48.7986 74.7202C48.7816 74.7542 48.7646 74.7712 48.7646 74.8052C48.6625 75.0093 48.5945 75.2474 48.5945 75.5536C48.5775 76.0469 48.7646 76.4041 49.0537 76.6592C49.0877 76.6932 49.1218 76.7102 49.1388 76.7442C49.1558 76.7612 49.1728 76.7612 49.1898 76.7782C49.2238 76.7953 49.2578 76.8293 49.2918 76.8463C49.3769 76.8973 49.4619 76.9483 49.564 76.9824C49.598 76.9994 49.632 77.0164 49.666 77.0334C49.8701 77.1184 50.0743 77.1695 50.2614 77.2205C50.2954 77.2205 50.3294 77.2375 50.3634 77.2375C50.7036 77.3055 50.9587 77.3055 50.9587 77.3055C51.8262 77.2375 52.4895 77.0844 52.9998 76.9143C53.0338 76.8973 53.0848 76.8803 53.1188 76.8803C53.1359 76.8803 53.1529 76.8633 53.1529 76.8633C53.1529 76.8633 53.1529 76.8633 53.1699 76.8633C53.1869 76.8633 53.2039 76.8463 53.2209 76.8463H53.2379H53.2549C53.2719 76.8463 53.2889 76.8293 53.3059 76.8293C53.408 76.7953 53.493 76.7612 53.5611 76.7102C53.7822 76.6082 53.9523 76.5061 54.0884 76.4041C54.1054 76.387 54.1054 76.387 54.1224 76.37C54.1394 76.353 54.1734 76.336 54.1904 76.319C54.2414 76.285 54.2755 76.251 54.3095 76.217C54.3265 76.1999 54.3605 76.1829 54.3775 76.1489C54.4796 76.0639 54.5136 75.9958 54.5306 75.9788H54.8878V78.1049C54.7177 78.156 54.5816 78.241 54.4455 78.3091Z" fill="#34607B"/>
<path d="M55.7213 7.36487L57.6433 12.0253H53.7993L55.7213 7.36487Z" fill="#34607B"/>
<path d="M53.697 2.00705L37.6235 17.8253L74.9581 18.0124C69.8895 10.5455 62.4396 4.84754 53.697 2.00705ZM62.4055 16.7028H57.7621L57.7791 16.1925C59.412 16.2435 58.9697 15.274 58.9697 15.274L58.0002 12.8757H53.4418C53.4418 12.8757 52.7785 14.2024 52.5233 15.308C52.2682 16.4136 53.731 16.2095 53.731 16.2095V16.7028H50.1251V16.1925C51.1626 16.1415 51.5198 15.0699 51.5198 15.0699L55.9592 4.64343H56.4014C56.4014 4.64343 60.3985 13.6752 60.9938 15.0359C61.5891 16.4136 62.3885 16.1925 62.3885 16.1925V16.7028H62.4055Z" fill="#34607B"/>
<path d="M68.835 55.6022C68.835 55.262 69.1071 54.9898 69.4473 54.9898C69.7875 54.9898 70.0596 55.262 70.0596 55.6022C70.0596 55.9423 69.7875 56.2145 69.4473 56.2145C69.1071 56.2145 68.835 55.9423 68.835 55.6022Z" fill="#34607B"/>
<path d="M64.447 37.1135L64.1919 74.8222C71.7779 69.6175 77.5269 61.9125 80.2483 52.9148L64.447 37.1135ZM75.3157 60.3817H66.9814V56.2995C66.9814 56.2995 66.7943 53.6972 69.5157 53.7482C69.5157 53.7482 71.1826 53.6802 71.2846 55.7042C71.2846 55.7042 71.1656 57.6943 68.8693 57.3031V58.5957H73.4107V54.0884C73.4107 54.0884 73.6148 51.503 71.1145 51.2989C71.1145 51.2989 69.0394 51.0608 66.8963 52.6256V50.4485C66.8963 50.4485 71.7949 48.3053 74.3632 50.9927C74.3632 50.9927 75.4348 52.1494 75.3327 54.2585V60.3817H75.3157Z" fill="#34607B"/>
<path d="M77.1183 21.5503L54.7686 21.9585L81.3025 48.5945C81.7617 46.1282 81.9998 43.5939 81.9998 41.0085C81.9998 33.9668 80.2309 27.3503 77.1183 21.5503ZM71.6244 36.8753H70.4168V35.6677H71.6244V36.8753ZM73.5294 36.8753H72.3218V35.6677H73.5294V36.8753ZM78.7852 28.694H78.547C78.547 28.694 78.53 28.677 78.513 28.643C78.496 28.626 78.496 28.609 78.479 28.609C78.2919 28.4049 77.6796 27.9627 76.2678 27.9456C75.4174 27.9286 74.9411 28.1157 74.686 28.3028C74.669 28.3198 74.635 28.3369 74.618 28.3539C74.601 28.3709 74.601 28.3709 74.5839 28.3879C74.5669 28.4049 74.5669 28.4049 74.5499 28.4219C74.5329 28.4389 74.5159 28.4729 74.4989 28.4899C74.4819 28.5069 74.4649 28.541 74.4649 28.558C74.3968 28.711 74.3798 28.8811 74.4139 29.0342C74.4139 29.0682 74.4309 29.0852 74.4479 29.1193C74.4479 29.1363 74.4649 29.1533 74.4649 29.1533C74.4649 29.1703 74.4819 29.1873 74.4819 29.1873C74.4819 29.2043 74.4989 29.2043 74.4989 29.2213C74.4989 29.2213 74.4989 29.2383 74.5159 29.2383L74.5329 29.2553C74.5499 29.2723 74.5499 29.2723 74.5669 29.2894C74.5839 29.3064 74.5839 29.3064 74.601 29.3234C74.618 29.3234 74.618 29.3404 74.635 29.3404L74.652 29.3574C74.669 29.3744 74.686 29.3914 74.72 29.3914C74.737 29.3914 74.754 29.4084 74.771 29.4084C74.8391 29.4424 74.8731 29.4424 74.8731 29.4424C74.8731 29.4424 74.9581 29.4764 75.3493 29.6295C75.4004 29.6465 75.4344 29.6635 75.4854 29.6806C75.5194 29.6976 75.5364 29.6976 75.5705 29.7146C75.6045 29.7316 75.6215 29.7316 75.6555 29.7486C75.6895 29.7656 75.7235 29.7656 75.7576 29.7826C75.7746 29.7826 75.7916 29.7996 75.8256 29.7996C75.8596 29.8166 75.9106 29.8336 75.9617 29.8506C75.9787 29.8677 76.0127 29.8677 76.0297 29.8847C76.0637 29.9017 76.1148 29.9187 76.1488 29.9357C76.1828 29.9527 76.2338 29.9697 76.2678 29.9867C76.3189 30.0037 76.3529 30.0207 76.4039 30.0377C76.4549 30.0548 76.506 30.0718 76.54 30.0888C76.557 30.0888 76.574 30.1058 76.591 30.1058C76.608 30.1058 76.625 30.1228 76.642 30.1228C76.659 30.1228 76.659 30.1398 76.676 30.1398C76.6931 30.1398 76.7101 30.1568 76.7271 30.1568C76.7441 30.1568 76.7441 30.1568 76.7611 30.1738C76.7781 30.1738 76.7781 30.1738 76.7951 30.1908C76.8631 30.2248 76.9312 30.2419 77.0162 30.2759C77.0502 30.2929 77.0673 30.2929 77.0843 30.3099C77.1013 30.3269 77.1353 30.3269 77.1523 30.3439C77.1693 30.3439 77.1863 30.3609 77.1863 30.3609C77.2373 30.3779 77.2884 30.4119 77.3394 30.4289C77.3564 30.4289 77.3564 30.446 77.3734 30.446C77.3734 30.446 77.3904 30.446 77.3904 30.463C77.4414 30.497 77.5095 30.514 77.5605 30.548C77.5605 30.548 77.5775 30.548 77.5775 30.565C77.5945 30.582 77.6115 30.582 77.6285 30.599C77.6456 30.599 77.6456 30.616 77.6626 30.616C77.7306 30.6501 77.7816 30.6841 77.8327 30.7181C77.8497 30.7351 77.8667 30.7521 77.9007 30.7691C77.9177 30.7861 77.9177 30.7861 77.9347 30.8031C77.9347 30.8031 77.9517 30.8031 77.9517 30.8202C77.9517 30.8202 77.9517 30.8202 77.9687 30.8202C77.9687 30.8202 77.9687 30.8202 77.9857 30.8372C78.0027 30.8372 78.0027 30.8542 78.0198 30.8542C78.0368 30.8712 78.0538 30.8882 78.0708 30.9052C78.1048 30.9392 78.1388 30.9562 78.1728 30.9902C78.6831 31.5005 78.564 31.9598 78.564 31.9598C78.5981 32.47 78.411 32.8782 78.1388 33.2014C78.1048 33.2354 78.0878 33.2694 78.0538 33.2864C77.8497 33.5076 77.5945 33.6947 77.3564 33.8307C77.3224 33.8477 77.2884 33.8648 77.2714 33.8818C77.1863 33.9328 77.1013 33.9668 77.0332 34.0008C77.0162 34.0178 76.9822 34.0178 76.9652 34.0348C76.8291 34.0859 76.7101 34.1369 76.642 34.1709H76.625C76.608 34.1709 76.591 34.1879 76.591 34.1879H76.574C76.574 34.1879 76.574 34.1879 76.557 34.1879C76.557 34.1879 76.557 34.1879 76.54 34.1879C76.54 34.1879 76.4889 34.2219 76.3359 34.273C76.3018 34.29 76.2678 34.29 76.2168 34.307C76.1828 34.324 76.1488 34.324 76.1147 34.341C76.0807 34.358 76.0297 34.358 75.9957 34.375H75.9787C75.9277 34.392 75.8766 34.392 75.8256 34.409H75.8086C75.6215 34.4431 75.4004 34.4771 75.1282 34.5111H75.1112C75.0772 34.5111 75.0262 34.5281 74.9922 34.5281C74.9411 34.5281 74.9071 34.5451 74.8561 34.5451C74.8221 34.5451 74.7881 34.5451 74.754 34.5621C74.72 34.5621 74.686 34.5621 74.652 34.5791C74.618 34.5791 74.5839 34.5791 74.5499 34.5961C74.4819 34.5961 74.4139 34.6131 74.3458 34.6131C74.2948 34.6131 74.2608 34.6131 74.2097 34.6302C74.1247 34.6302 74.0397 34.6472 73.9376 34.6472C73.8526 34.6472 73.7505 34.6642 73.6485 34.6642C73.2062 34.6982 72.696 34.7152 72.1006 34.7322C71.9646 34.7322 71.8455 34.7322 71.6924 34.7322C71.4203 34.7322 71.1311 34.7322 70.808 34.7322C70.3657 34.7322 69.9745 34.6982 69.6343 34.6302C69.5663 34.6131 69.4813 34.5961 69.4132 34.5791C69.2431 34.5281 69.0731 34.4771 68.92 34.409C68.8519 34.375 68.8009 34.358 68.7499 34.324C68.7159 34.307 68.6989 34.29 68.6648 34.273C68.6138 34.2389 68.5628 34.2049 68.5118 34.1879C68.3247 34.0689 68.1716 33.9498 68.0355 33.8137C68.0015 33.7797 67.9675 33.7287 67.9164 33.6947C67.8314 33.5926 67.7464 33.4906 67.6783 33.3715C67.6443 33.3205 67.6273 33.2864 67.5933 33.2354C67.5763 33.2184 67.5593 33.1844 67.5593 33.1674C67.5252 33.1164 67.5082 33.0653 67.4912 33.0143C67.4912 32.9973 67.4742 32.9973 67.4742 32.9803C67.4572 32.9633 67.4572 32.9293 67.4402 32.9123C67.4232 32.8952 67.4232 32.8782 67.4232 32.8442C67.4232 32.8272 67.4062 32.8102 67.4062 32.8102C67.4062 32.8102 67.4062 32.8102 67.4062 32.7932C67.3892 32.7592 67.3892 32.7252 67.3722 32.7081C67.3552 32.6741 67.3552 32.6401 67.3381 32.6061C67.3381 32.5891 67.3211 32.5551 67.3211 32.5381C67.2871 32.436 67.2701 32.351 67.2531 32.2489C67.2361 32.1809 67.2191 32.0958 67.2191 32.0278C67.2021 31.9257 67.2021 31.8407 67.1851 31.7386C67.151 31.3304 67.1681 30.9562 67.2021 30.6331V30.616C67.2021 30.548 67.2191 30.497 67.2191 30.4289V30.4119C67.2361 30.3609 67.2361 30.2929 67.2531 30.2419C67.2531 30.2248 67.2531 30.1908 67.2701 30.1738C67.2701 30.1398 67.2871 30.1058 67.2871 30.0718C67.2871 30.0548 67.2871 30.0377 67.3041 30.0207C67.3041 30.0037 67.3211 29.9697 67.3211 29.9527C67.3211 29.9357 67.3211 29.9187 67.3381 29.9017C67.3381 29.8847 67.3552 29.8506 67.3552 29.8336C67.3722 29.7486 67.3892 29.7146 67.3892 29.7146L68.6989 29.6806C68.6989 29.6806 68.6648 29.6976 68.6308 30.0548C68.6308 30.0718 68.6308 30.0888 68.6308 30.1058V30.1228C68.6308 30.1398 68.6308 30.1568 68.6308 30.1568C68.6308 30.1738 68.6308 30.1908 68.6308 30.1908V30.2078C68.6308 30.2248 68.6308 30.2248 68.6308 30.2419V30.2589C68.6308 30.2759 68.6308 30.2929 68.6308 30.3099C68.6308 30.3269 68.6308 30.3609 68.6308 30.3779C68.6308 30.3949 68.6308 30.4119 68.6308 30.446V30.497C68.6308 30.514 68.6308 30.531 68.6308 30.548C68.6308 30.582 68.6308 30.616 68.6308 30.6501C68.6308 30.6671 68.6308 30.6841 68.6308 30.7181C68.6308 30.7521 68.6308 30.7691 68.6308 30.8031C68.6308 30.8372 68.6308 30.8542 68.6308 30.8882C68.6308 30.9222 68.6308 30.9562 68.6308 30.9732V30.9902V31.0073V31.0243C68.6308 31.0583 68.6308 31.1093 68.6308 31.1603C68.6308 31.1944 68.6308 31.2284 68.6308 31.2624C68.6308 31.2964 68.6308 31.3304 68.6308 31.3814C68.6308 31.4155 68.6308 31.4495 68.6308 31.5005C68.6308 31.5515 68.6308 31.6196 68.6308 31.6876C68.6138 32.0788 68.7669 32.385 68.988 32.6231C69.005 32.6401 69.022 32.6571 69.022 32.6571C69.1071 32.7252 69.1921 32.7932 69.2942 32.8612C69.3452 32.8952 69.3962 32.9123 69.4473 32.9463C69.4813 32.9633 69.5153 32.9803 69.5493 32.9973C69.6173 33.0313 69.7024 33.0653 69.7874 33.0823C69.8725 33.1164 69.9405 33.1334 70.0256 33.1504C70.0596 33.1674 70.0936 33.1674 70.1276 33.1844H70.1446H70.1616C70.1786 33.1844 70.1786 33.1844 70.1956 33.1844C70.2127 33.1844 70.2297 33.1844 70.2467 33.2014C70.2637 33.2014 70.2637 33.2014 70.2807 33.2014H70.2977C70.3147 33.2014 70.3317 33.2014 70.3317 33.2014C70.3487 33.2014 70.3657 33.2014 70.3827 33.2184C70.4168 33.2184 70.4508 33.2354 70.4678 33.2354C70.4848 33.2354 70.5018 33.2354 70.5188 33.2354C70.5528 33.2354 70.6039 33.2524 70.6379 33.2524C70.6719 33.2524 70.7059 33.2524 70.7229 33.2694H70.7399C70.7399 33.2694 70.7399 33.2694 70.7569 33.2694C70.7739 33.2694 70.791 33.2694 70.825 33.2694C70.842 33.2694 70.859 33.2694 70.876 33.2694C70.893 33.2694 70.91 33.2694 70.927 33.2694C70.944 33.2694 70.944 33.2694 70.944 33.2694C70.961 33.2694 70.9781 33.2694 70.9951 33.2694C71.0121 33.2694 71.0121 33.2694 71.0291 33.2694H71.0461H71.0631C71.0801 33.2694 71.0801 33.2694 71.0801 33.2694H71.0971C71.1141 33.2694 71.1481 33.2694 71.1652 33.2694C71.1822 33.2694 71.1822 33.2694 71.1992 33.2694H71.2162C71.2502 33.2694 71.3012 33.2694 71.3352 33.2694C71.4033 33.2694 71.4713 33.2694 71.5223 33.2694H71.5394H71.6074H71.6244C71.7094 33.2694 71.7945 33.2694 71.8625 33.2694C71.8625 33.2694 71.8625 33.2694 71.8795 33.2694C71.8965 33.2694 71.8965 33.2694 71.9135 33.2694C71.9306 33.2694 71.9476 33.2694 71.9476 33.2694C71.9646 33.2694 71.9646 33.2694 71.9646 33.2694C71.9816 33.2694 71.9816 33.2694 71.9986 33.2694C72.0156 33.2694 72.0156 33.2694 72.0326 33.2694C72.0496 33.2694 72.0496 33.2694 72.0666 33.2694C72.0836 33.2694 72.0836 33.2694 72.1006 33.2694C72.1177 33.2694 72.1347 33.2694 72.1517 33.2694H72.1687C72.2367 33.2694 72.3048 33.2694 72.3728 33.2524C72.4068 33.2524 72.4238 33.2524 72.4578 33.2524C72.4748 33.2524 72.4918 33.2524 72.5089 33.2524C72.696 33.2524 72.8831 33.2354 73.0702 33.2354C73.2402 33.2354 73.4103 33.2184 73.5804 33.2184C73.6655 33.2184 73.7505 33.2014 73.8356 33.2014C73.8526 33.2014 73.8696 33.2014 73.8866 33.2014H73.9036C73.9206 33.2014 73.9376 33.2014 73.9376 33.2014C73.9546 33.2014 73.9716 33.2014 73.9886 33.2014C74.0397 33.2014 74.0907 33.1844 74.1417 33.1844C74.1417 33.1844 74.1417 33.1844 74.1587 33.1844C74.3118 33.1674 74.4649 33.1504 74.601 33.1334C74.618 33.1334 74.635 33.1334 74.652 33.1334C74.669 33.1334 74.703 33.1334 74.72 33.1164C74.737 33.1164 74.771 33.1164 74.7881 33.0994C74.8561 33.0823 74.9071 33.0823 74.9751 33.0653C75.0432 33.0483 75.0942 33.0483 75.1452 33.0313C75.2133 33.0143 75.2643 33.0143 75.3323 32.9973C75.3664 32.9973 75.4004 32.9803 75.4514 32.9803C75.4854 32.9803 75.5194 32.9633 75.5535 32.9633C75.5705 32.9633 75.5875 32.9633 75.6045 32.9463C75.6215 32.9463 75.6385 32.9463 75.6555 32.9293C75.6895 32.9293 75.7235 32.9123 75.7576 32.9123C75.8256 32.8952 75.8936 32.8782 75.9447 32.8612C75.9787 32.8442 76.0297 32.8442 76.0637 32.8272C76.1148 32.8102 76.1828 32.7932 76.2338 32.7762C76.2678 32.7592 76.3018 32.7592 76.3359 32.7422C76.3699 32.7252 76.4039 32.7252 76.4379 32.7081C76.7271 32.6061 76.9312 32.487 77.0672 32.385C77.0843 32.368 77.1013 32.351 77.1183 32.351C77.1353 32.3339 77.1523 32.3169 77.1693 32.2999C77.1863 32.2829 77.1863 32.2659 77.2033 32.2659C77.2033 32.2659 77.2033 32.2489 77.2203 32.2489C77.2373 32.2149 77.2543 32.1809 77.2714 32.1639V32.1469C77.2884 32.1128 77.2884 32.0958 77.2884 32.0618C77.3054 31.9598 77.2884 31.8747 77.2543 31.7727C77.2373 31.7216 77.2033 31.6876 77.1693 31.6366C77.1523 31.6196 77.1523 31.6026 77.1353 31.6026C76.9822 31.4665 76.8121 31.4155 76.8121 31.4155C76.7951 31.3985 76.642 31.3304 76.1488 31.1433C76.1148 31.1263 76.0977 31.1263 76.0637 31.1093C76.0127 31.0923 75.9447 31.0583 75.8936 31.0413C75.8766 31.0413 75.8596 31.0243 75.8426 31.0243C75.8086 31.0073 75.7746 31.0073 75.7406 30.9902C75.6725 30.9562 75.6045 30.9392 75.5194 30.9052C75.4854 30.8882 75.4344 30.8712 75.4004 30.8542C75.3664 30.8372 75.3153 30.8202 75.2813 30.8031C75.1282 30.7521 74.9581 30.6841 74.771 30.616C74.5839 30.548 74.4139 30.48 74.2778 30.3949C74.2438 30.3779 74.2098 30.3609 74.1757 30.3439C74.1417 30.3269 74.1077 30.3099 74.0737 30.2929C73.8866 30.1738 73.7165 30.0548 73.5974 29.9357C73.5124 29.8506 73.4443 29.7656 73.3933 29.6976C73.1552 29.3744 73.0702 28.9662 73.1382 28.575C73.3253 27.5034 74.0567 26.9591 74.703 26.67C74.7881 26.636 74.8901 26.6019 74.9751 26.5679C75.0262 26.5509 75.0772 26.5339 75.1282 26.5169C75.1793 26.4999 75.2473 26.4829 75.2983 26.4659C75.3493 26.4489 75.4174 26.4489 75.4854 26.4319C75.7235 26.3978 75.9787 26.3808 76.2168 26.3808C76.4209 26.3808 76.608 26.3978 76.7951 26.4148C76.8801 26.4319 76.9652 26.4319 77.0672 26.4489C77.3224 26.4829 77.5605 26.5339 77.7646 26.5849C77.8327 26.6019 77.9007 26.619 77.9687 26.636C78.547 26.8061 78.8702 26.9931 78.8702 26.9931V28.694H78.7852Z" fill="#34607B"/>
</svg>
