<svg width="35" height="35" viewBox="0 0 35 35" fill="none" xmlns="http://www.w3.org/2000/svg">
<g clip-path="url(#clip0_181_3148)">
<path d="M17.5 32.8125C13.4389 32.8125 9.54408 31.1992 6.67243 28.3276C3.80078 25.4559 2.1875 21.5611 2.1875 17.5C2.1875 13.4389 3.80078 9.54408 6.67243 6.67243C9.54408 3.80078 13.4389 2.1875 17.5 2.1875C21.5611 2.1875 25.4559 3.80078 28.3276 6.67243C31.1992 9.54408 32.8125 13.4389 32.8125 17.5C32.8125 21.5611 31.1992 25.4559 28.3276 28.3276C25.4559 31.1992 21.5611 32.8125 17.5 32.8125ZM17.5 35C22.1413 35 26.5925 33.1563 29.8744 29.8744C33.1563 26.5925 35 22.1413 35 17.5C35 12.8587 33.1563 8.40752 29.8744 5.12563C26.5925 1.84374 22.1413 0 17.5 0C12.8587 0 8.40752 1.84374 5.12563 5.12563C1.84374 8.40752 0 12.8587 0 17.5C0 22.1413 1.84374 26.5925 5.12563 29.8744C8.40752 33.1563 12.8587 35 17.5 35Z" fill="#F70000"/>
<path d="M15.3169 24.0625C15.3169 23.7752 15.3735 23.4908 15.4834 23.2254C15.5933 22.96 15.7545 22.7188 15.9576 22.5157C16.1607 22.3126 16.4019 22.1514 16.6673 22.0415C16.9327 21.9316 17.2171 21.875 17.5044 21.875C17.7917 21.875 18.0761 21.9316 18.3415 22.0415C18.6069 22.1514 18.8481 22.3126 19.0512 22.5157C19.2543 22.7188 19.4154 22.96 19.5254 23.2254C19.6353 23.4908 19.6919 23.7752 19.6919 24.0625C19.6919 24.6427 19.4614 25.1991 19.0512 25.6093C18.641 26.0195 18.0846 26.25 17.5044 26.25C16.9242 26.25 16.3678 26.0195 15.9576 25.6093C15.5474 25.1991 15.3169 24.6427 15.3169 24.0625ZM15.5313 10.9266C15.5021 10.6506 15.5314 10.3716 15.617 10.1076C15.7027 9.84367 15.8429 9.60068 16.0285 9.39441C16.2142 9.18814 16.4411 9.0232 16.6946 8.9103C16.9481 8.7974 17.2225 8.73906 17.5 8.73906C17.7775 8.73906 18.0519 8.7974 18.3054 8.9103C18.5589 9.0232 18.7859 9.18814 18.9715 9.39441C19.1572 9.60068 19.2974 9.84367 19.383 10.1076C19.4687 10.3716 19.4979 10.6506 19.4688 10.9266L18.7031 18.5981C18.6774 18.8995 18.5395 19.1802 18.3167 19.3848C18.0939 19.5894 17.8025 19.7029 17.5 19.7029C17.1975 19.7029 16.9061 19.5894 16.6833 19.3848C16.4605 19.1802 16.3226 18.8995 16.2969 18.5981L15.5313 10.9266Z" fill="#F70000"/>
</g>
<defs>
<clipPath id="clip0_181_3148">
<rect width="35" height="35" fill="white"/>
</clipPath>
</defs>
</svg>
