<svg width="25" height="28" viewBox="0 0 25 28" fill="none" xmlns="http://www.w3.org/2000/svg">
<path d="M21.5417 19.9583V13.2417C20.8958 13.3708 20.25 13.5 19.6042 13.5H18.9583V21.25H6.04167V12.2083C6.04167 8.59168 8.88333 5.75001 12.5 5.75001C12.6292 4.07084 13.4042 2.65001 14.4375 1.48751C14.05 0.970844 13.275 0.583344 12.5 0.583344C11.0792 0.583344 9.91667 1.74584 9.91667 3.16668V3.55418C6.04167 4.71668 3.45833 8.20418 3.45833 12.2083V19.9583L0.875 22.5417V23.8333H24.125V22.5417L21.5417 19.9583ZM9.91667 25.125C9.91667 26.5458 11.0792 27.7083 12.5 27.7083C13.9208 27.7083 15.0833 26.5458 15.0833 25.125H9.91667ZM24.125 6.39584C24.125 8.85001 22.0583 10.9167 19.6042 10.9167C17.15 10.9167 15.0833 8.85001 15.0833 6.39584C15.0833 3.94168 17.15 1.87501 19.6042 1.87501C22.0583 1.87501 24.125 3.94168 24.125 6.39584Z" fill="#34607B"/>
</svg>
