<svg width="21" height="27" viewBox="0 0 21 27" fill="none" xmlns="http://www.w3.org/2000/svg">
<path d="M2.74984 0.583332C2.06469 0.583332 1.40761 0.855504 0.923145 1.33997C0.438676 1.82444 0.166504 2.48152 0.166504 3.16667V23.8333C0.166504 24.5185 0.438676 25.1756 0.923145 25.66C1.40761 26.1445 2.06469 26.4167 2.74984 26.4167H18.2498C18.935 26.4167 19.5921 26.1445 20.0765 25.66C20.561 25.1756 20.8332 24.5185 20.8332 23.8333V8.33333L13.0832 0.583332H2.74984ZM2.74984 3.16667H11.7915V9.625H18.2498V23.8333H2.74984V3.16667ZM5.33317 13.5V16.0833H15.6665V13.5H5.33317ZM5.33317 18.6667V21.25H11.7915V18.6667H5.33317Z" fill="white"/>
</svg>
