<svg width="16" height="17" viewBox="0 0 16 17" fill="none" xmlns="http://www.w3.org/2000/svg">
<path d="M13.25 6.5H2.75C1.92157 6.5 1.25 7.17157 1.25 8V14C1.25 14.8284 1.92157 15.5 2.75 15.5H13.25C14.0784 15.5 14.75 14.8284 14.75 14V8C14.75 7.17157 14.0784 6.5 13.25 6.5Z" stroke="#34607B" stroke-width="2" stroke-linecap="round" stroke-linejoin="round"/>
<path d="M3.5 3.5C3.5 2.90326 3.73705 2.33097 4.15901 1.90901C4.58097 1.48705 5.15326 1.25 5.75 1.25H10.25C10.8467 1.25 11.419 1.48705 11.841 1.90901C12.2629 2.33097 12.5 2.90326 12.5 3.5V6.5H3.5V3.5Z" stroke="#34607B" stroke-width="2" stroke-linecap="round" stroke-linejoin="round"/>
</svg>
