<svg width="25" height="25" viewBox="0 0 25 25" fill="none" xmlns="http://www.w3.org/2000/svg">
<path d="M12.5 1.25C6.28663 1.25 1.25 6.28663 1.25 12.5C1.25 18.7134 6.28663 23.75 12.5 23.75C18.7134 23.75 23.75 18.7134 23.75 12.5C23.75 6.28663 18.7134 1.25 12.5 1.25Z" stroke="white" stroke-width="1.5" stroke-linecap="round" stroke-linejoin="round"/>
<path d="M3.80469 19.6393C3.80469 19.6393 6.31231 16.4375 12.4998 16.4375C18.6873 16.4375 21.1961 19.6393 21.1961 19.6393M12.4998 12.5C13.3949 12.5 14.2534 12.1444 14.8863 11.5115C15.5192 10.8786 15.8748 10.0201 15.8748 9.125C15.8748 8.22989 15.5192 7.37145 14.8863 6.73851C14.2534 6.10558 13.3949 5.75 12.4998 5.75C11.6047 5.75 10.7463 6.10558 10.1133 6.73851C9.48039 7.37145 9.12481 8.22989 9.12481 9.125C9.12481 10.0201 9.48039 10.8786 10.1133 11.5115C10.7463 12.1444 11.6047 12.5 12.4998 12.5Z" stroke="white" stroke-width="1.5" stroke-linecap="round" stroke-linejoin="round"/>
</svg>
