<svg width="145" height="145" viewBox="0 0 145 145" fill="none" xmlns="http://www.w3.org/2000/svg">
<path d="M72.5 13.5938C60.8495 13.5938 49.4605 17.0485 39.7735 23.5212C30.0864 29.9939 22.5362 39.1938 18.0777 49.9576C13.6193 60.7213 12.4527 72.5653 14.7256 83.992C16.9986 95.4187 22.6088 105.915 30.847 114.153C39.0852 122.391 49.5813 128.001 61.008 130.274C72.4347 132.547 84.2788 131.381 95.0425 126.922C105.806 122.464 115.006 114.914 121.479 105.227C127.951 95.5395 131.406 84.1506 131.406 72.5C131.376 56.8863 125.161 41.9206 114.12 30.8801C103.079 19.8395 88.1137 13.6237 72.5 13.5938ZM72.5 122.344C62.6419 122.344 53.0051 119.42 44.8083 113.944C36.6116 108.467 30.223 100.682 26.4504 91.5744C22.6778 82.4666 21.6908 72.4447 23.614 62.776C25.5372 53.1072 30.2844 44.2259 37.2552 37.2551C44.2259 30.2844 53.1073 25.5372 62.776 23.614C72.4447 21.6908 82.4667 22.6778 91.5744 26.4504C100.682 30.2229 108.467 36.6115 113.944 44.8083C119.42 53.0051 122.344 62.6418 122.344 72.5C122.329 85.7148 117.073 98.384 107.728 107.728C98.3841 117.073 85.7148 122.329 72.5 122.344ZM45.3125 61.1719C45.3125 59.8276 45.7112 58.5135 46.458 57.3957C47.2049 56.278 48.2664 55.4068 49.5084 54.8924C50.7503 54.3779 52.1169 54.2433 53.4354 54.5056C54.7539 54.7679 55.965 55.4152 56.9155 56.3658C57.8661 57.3163 58.5134 58.5274 58.7757 59.8459C59.0379 61.1643 58.9033 62.531 58.3889 63.7729C57.8745 65.0149 57.0033 66.0764 55.8855 66.8233C54.7678 67.5701 53.4537 67.9688 52.1094 67.9688C50.3068 67.9688 48.5779 67.2527 47.3033 65.978C46.0286 64.7033 45.3125 62.9745 45.3125 61.1719ZM86.0938 61.1719C86.0938 59.8276 86.4924 58.5135 87.2393 57.3957C87.9861 56.278 89.0476 55.4068 90.2896 54.8924C91.5316 54.3779 92.8982 54.2433 94.2167 54.5056C95.5351 54.7679 96.7462 55.4152 97.6968 56.3658C98.6473 57.3163 99.2947 58.5274 99.5569 59.8459C99.8192 61.1643 99.6846 62.531 99.1701 63.7729C98.6557 65.0149 97.7845 66.0764 96.6668 66.8233C95.549 67.5701 94.2349 67.9688 92.8906 67.9688C91.088 67.9688 89.3592 67.2527 88.0845 65.978C86.8099 64.7033 86.0938 62.9745 86.0938 61.1719ZM99.9707 97.4219C100.568 98.4593 100.73 99.6908 100.423 100.848C100.115 102.004 99.3619 102.992 98.3282 103.596C97.6453 104.009 96.8609 104.225 96.0625 104.219C95.2663 104.234 94.4812 104.031 93.7922 103.631C93.1033 103.232 92.5368 102.652 92.1543 101.953C90.1588 98.5077 87.2925 95.6473 83.8429 93.6589C80.3934 91.6704 76.4817 90.6237 72.5 90.6237C68.5184 90.6237 64.6067 91.6704 61.1571 93.6589C57.7075 95.6473 54.8413 98.5077 52.8457 101.953C52.5755 102.517 52.1917 103.018 51.7183 103.426C51.245 103.834 50.6924 104.139 50.0953 104.324C49.4982 104.508 48.8694 104.566 48.2486 104.496C47.6277 104.425 47.0282 104.227 46.4876 103.914C45.947 103.6 45.477 103.178 45.1073 102.675C44.7376 102.171 44.476 101.596 44.339 100.987C44.2021 100.377 44.1927 99.7455 44.3115 99.1321C44.4303 98.5186 44.6747 97.9364 45.0293 97.4219C47.813 92.5993 51.8172 88.5946 56.6394 85.8102C61.4615 83.0258 66.9317 81.56 72.5 81.56C78.0683 81.56 83.5385 83.0258 88.3607 85.8102C93.1828 88.5946 97.187 92.5993 99.9707 97.4219Z" fill="#34607B"/>
</svg>
