<svg width="123" height="104" viewBox="0 0 123 104" fill="none" xmlns="http://www.w3.org/2000/svg">
<path d="M58.2916 100.022C58.7524 101.509 58.3224 103.131 57.4037 103.416C56.485 103.7 55.6091 103.299 55.1483 101.812C54.6875 100.326 55.0475 99.5625 55.9662 99.2778C56.8849 98.9931 57.8308 98.5352 58.2916 100.022Z" fill="#34607B"/>
<path d="M104.105 89.6141C101.983 91.5387 98.9427 92.082 97.7536 90.7708C96.5644 89.4595 96.5524 87.6866 98.6747 85.7621C100.797 83.8375 102.35 83.8449 103.539 85.1562C104.728 86.4675 106.227 87.6896 104.105 89.6141Z" fill="#34607B"/>
<path d="M26.0695 98.8941C23.1268 101.563 18.0182 101.33 15.4046 98.4483C12.7909 95.5662 12.054 92.3139 14.9967 89.6454C17.9393 86.9768 20.6638 87.6174 23.2774 90.4995C25.8911 93.3817 29.0121 96.2256 26.0695 98.8941Z" fill="#34607B"/>
<path d="M26.3219 63.8396C26.7827 65.3265 26.3527 66.9483 25.434 67.233C24.5153 67.5177 23.6394 67.1168 23.1786 65.6299C22.7177 64.1431 23.0777 63.3801 23.9964 63.0953C24.9151 62.8106 25.861 62.3527 26.3219 63.8396Z" fill="#34607B"/>
<path d="M107.157 38.9819C106.836 34.9246 110.246 30.9256 114.245 30.6091C118.243 30.2926 121.36 31.7303 121.681 35.7876C122.003 39.8448 119.762 41.6541 115.764 41.9706C111.765 42.2871 107.478 43.0392 107.157 38.9819Z" fill="#34607B"/>
<path d="M6.24765 31.0402C5.43776 31.9024 3.54643 30.8608 2.56602 29.8804C1.58562 28.9 0.344981 26.9693 1.77363 25.5406C3.20228 24.112 5.1146 26.0891 6.095 27.0696C7.07541 28.05 7.05754 30.178 6.24765 31.0402Z" fill="#34607B" fill-opacity="0.5"/>
<path d="M45.8734 13.9428C43.7511 15.8674 40.7112 16.4107 39.5221 15.0994C38.333 13.7881 38.321 12.0153 40.4432 10.0907C42.5655 8.16617 44.1182 8.17361 45.3074 9.48489C46.4965 10.7962 47.9957 12.0182 45.8734 13.9428Z" fill="#34607B"/>
<path d="M83.4755 1.28747C83.8581 2.7152 82.9042 4.36847 81.4972 4.74549C80.0901 5.12251 78.882 4.81489 78.4995 3.38717C78.1169 1.95944 78.7975 1.16541 80.2045 0.788397C81.6115 0.411381 83.0929 -0.140253 83.4755 1.28747Z" fill="#0091D8" fill-opacity="0.1"/>
<g clip-path="url(#clip0_52_2018)">
<path fill-rule="evenodd" clip-rule="evenodd" d="M41.9707 53.5C41.9707 47.7978 44.1832 42.3292 48.1215 38.2972C52.0597 34.2652 57.4012 32 62.9707 32C68.5402 32 73.8817 34.2652 77.8199 38.2972C81.7582 42.3292 83.9707 47.7978 83.9707 53.5C83.9707 59.2022 81.7582 64.6708 77.8199 68.7028C73.8817 72.7348 68.5402 75 62.9707 75C57.4012 75 52.0597 72.7348 48.1215 68.7028C44.1832 64.6708 41.9707 59.2022 41.9707 53.5V53.5ZM61.7723 62.702L73.8627 47.2277L71.6787 45.4389L61.3691 58.6285L54.0667 52.3992L52.2747 54.6008L61.7723 62.7049V62.702Z" fill="#34607B"/>
</g>
<defs>
<clipPath id="clip0_52_2018">
<rect width="42" height="43" fill="white" transform="translate(41.9707 32)"/>
</clipPath>
</defs>
</svg>
